<?xml version="1.0" standalone="no"?>
<!DOCTYPE svg PUBLIC "-//W3C//DTD SVG 20010904//EN"
 "http://www.w3.org/TR/2001/REC-SVG-20010904/DTD/svg10.dtd">
<svg version="1.0" xmlns="http://www.w3.org/2000/svg"
 width="1500.000000pt" height="1500.000000pt" viewBox="0 0 1500.000000 1500.000000"
 preserveAspectRatio="xMidYMid meet">

<g transform="translate(0.000000,1500.000000) scale(0.100000,-0.100000)"
fill="#000000" stroke="none">
<path d="M7445 14931 c-6 -4 -41 -16 -80 -26 -38 -10 -74 -22 -79 -27 -6 -4
-20 -8 -33 -8 -13 0 -31 -4 -41 -9 -30 -15 -181 -61 -202 -61 -11 0 -20 -4
-20 -10 0 -5 -8 -10 -17 -10 -19 0 -159 -46 -185 -60 -10 -6 -28 -10 -41 -10
-13 0 -27 -4 -33 -8 -5 -4 -34 -16 -64 -26 -30 -10 -64 -21 -75 -26 -11 -4
-33 -13 -50 -18 -51 -17 -179 -63 -200 -72 -11 -4 -49 -19 -85 -34 -36 -14
-73 -26 -82 -26 -10 0 -18 -3 -18 -8 0 -4 -27 -16 -61 -26 -33 -11 -62 -23
-65 -28 -3 -4 -16 -8 -30 -8 -13 0 -24 -4 -24 -10 0 -5 -7 -10 -15 -10 -8 0
-23 -4 -33 -9 -9 -5 -42 -19 -72 -31 -30 -12 -68 -28 -85 -35 -16 -7 -59 -25
-95 -40 -36 -15 -98 -43 -138 -61 -40 -19 -76 -34 -80 -34 -4 0 -34 -13 -67
-29 -33 -16 -82 -39 -110 -51 -27 -12 -78 -35 -111 -51 -34 -16 -67 -29 -73
-29 -6 0 -11 -3 -11 -7 0 -5 -32 -21 -70 -38 -38 -16 -70 -33 -70 -37 0 -5 -6
-8 -12 -8 -16 0 -122 -53 -126 -62 -2 -5 -12 -8 -22 -8 -10 0 -20 -3 -22 -7
-1 -5 -52 -33 -113 -63 -60 -30 -111 -58 -113 -62 -2 -5 -12 -8 -23 -8 -10 0
-19 -4 -19 -10 0 -5 -11 -12 -25 -16 -14 -3 -25 -10 -25 -15 0 -5 -9 -9 -20
-9 -11 0 -20 -3 -20 -8 0 -4 -15 -14 -32 -21 -18 -8 -39 -21 -46 -28 -7 -7
-20 -13 -28 -13 -8 0 -14 -4 -14 -10 0 -5 -9 -10 -20 -10 -11 0 -20 -3 -20 -8
0 -8 -12 -15 -79 -47 -22 -11 -41 -23 -41 -27 0 -5 -4 -8 -10 -8 -5 0 -34 -16
-64 -35 -30 -19 -58 -35 -62 -35 -4 0 -22 -11 -40 -25 -18 -14 -37 -25 -43
-25 -6 0 -11 -4 -11 -10 0 -5 -9 -10 -20 -10 -11 0 -20 -4 -20 -8 0 -5 -16
-17 -35 -28 -19 -10 -35 -22 -35 -26 0 -5 -9 -8 -19 -8 -11 0 -21 -4 -23 -8
-4 -11 -115 -82 -128 -82 -6 0 -10 -4 -10 -8 0 -5 -16 -17 -35 -28 -19 -10
-35 -22 -35 -26 0 -5 -4 -8 -10 -8 -9 0 -72 -39 -97 -60 -7 -5 -15 -10 -18
-10 -4 0 -13 -6 -20 -12 -33 -30 -45 -38 -55 -38 -5 0 -10 -3 -10 -7 0 -5 -28
-26 -63 -48 -34 -22 -71 -48 -81 -57 -11 -10 -23 -18 -27 -18 -4 0 -14 -6 -21
-13 -7 -7 -38 -30 -68 -52 -30 -22 -60 -44 -66 -50 -6 -5 -27 -21 -47 -35 -20
-14 -37 -28 -37 -32 0 -5 -6 -8 -12 -8 -7 0 -30 -16 -50 -35 -20 -19 -40 -35
-45 -35 -4 0 -25 -16 -45 -35 -20 -19 -40 -35 -45 -35 -4 0 -24 -15 -43 -33
-19 -17 -53 -45 -75 -62 -22 -16 -47 -37 -56 -47 -9 -10 -19 -18 -23 -18 -4 0
-17 -9 -29 -21 -12 -12 -38 -33 -56 -48 -19 -14 -51 -42 -71 -61 -20 -19 -53
-48 -75 -65 -21 -16 -57 -48 -80 -70 -65 -62 -114 -105 -119 -105 -11 0 -529
-513 -631 -624 -49 -55 -113 -123 -140 -152 -28 -29 -64 -69 -80 -89 -16 -20
-40 -49 -54 -65 -92 -100 -111 -121 -137 -156 -16 -21 -31 -41 -34 -44 -3 -3
-32 -36 -63 -75 -32 -38 -68 -81 -80 -95 -12 -14 -35 -44 -52 -65 -16 -22 -34
-45 -40 -51 -5 -6 -21 -27 -35 -47 -14 -20 -28 -37 -32 -37 -5 0 -8 -7 -8 -15
0 -8 -3 -15 -7 -15 -5 0 -19 -17 -33 -37 -14 -20 -30 -41 -36 -47 -5 -6 -48
-65 -94 -131 -46 -66 -86 -122 -90 -125 -4 -3 -15 -20 -25 -38 -11 -17 -23
-32 -27 -32 -4 0 -8 -6 -8 -14 0 -8 -3 -16 -8 -18 -4 -1 -25 -30 -47 -63 -21
-33 -42 -61 -47 -63 -4 -2 -8 -8 -8 -13 0 -5 -16 -31 -35 -58 -19 -26 -35 -53
-35 -59 0 -6 -3 -12 -7 -14 -11 -4 -83 -116 -83 -128 0 -5 -4 -10 -9 -10 -25
0 -33 -82 -42 -425 -16 -627 1 -1138 52 -1655 6 -58 15 -141 19 -185 12 -118
27 -237 46 -350 8 -55 20 -129 24 -165 11 -82 25 -162 45 -265 8 -44 18 -100
21 -125 3 -25 9 -54 14 -65 5 -11 11 -38 14 -60 5 -43 14 -88 40 -200 9 -38
19 -86 22 -105 3 -19 9 -44 14 -55 4 -11 20 -74 35 -140 14 -66 30 -130 36
-143 5 -13 9 -33 9 -45 0 -13 4 -27 8 -32 5 -6 14 -35 21 -65 8 -30 19 -73 26
-95 11 -38 27 -91 46 -160 12 -44 60 -197 69 -220 5 -11 16 -47 25 -80 9 -33
20 -69 25 -80 4 -11 13 -33 19 -48 6 -15 11 -37 11 -47 0 -11 5 -20 10 -20 6
0 10 -9 10 -20 0 -17 18 -66 41 -112 5 -10 9 -29 9 -43 0 -14 5 -25 10 -25 6
0 10 -10 10 -23 0 -13 4 -27 8 -32 5 -6 17 -32 26 -60 10 -27 22 -60 27 -72
16 -39 26 -66 54 -138 15 -38 38 -94 51 -123 14 -29 30 -71 37 -92 6 -22 15
-40 19 -40 5 0 8 -11 8 -25 0 -14 3 -25 8 -25 4 0 15 -21 25 -48 10 -26 23
-55 28 -64 5 -10 9 -25 9 -33 0 -8 5 -15 10 -15 6 0 10 -5 10 -12 0 -6 11 -34
24 -62 64 -136 96 -208 96 -217 0 -5 5 -9 10 -9 6 0 10 -6 10 -12 0 -12 179
-377 190 -388 3 -3 14 -24 25 -47 11 -24 23 -43 28 -43 4 0 7 -9 7 -20 0 -11
5 -20 10 -20 6 0 10 -5 10 -12 0 -6 24 -55 54 -107 29 -53 66 -118 81 -146 15
-27 31 -54 35 -60 4 -5 19 -30 33 -55 71 -128 82 -145 89 -148 4 -2 8 -10 8
-18 0 -8 5 -14 10 -14 6 0 10 -9 10 -20 0 -11 4 -20 10 -20 5 0 12 -11 16 -25
3 -14 9 -25 13 -25 4 0 14 -12 22 -27 15 -31 61 -105 69 -113 3 -3 12 -18 20
-35 8 -16 23 -39 32 -49 10 -11 20 -28 24 -38 3 -10 10 -18 15 -18 5 0 9 -9 9
-20 0 -11 4 -20 8 -20 5 0 17 -16 28 -35 10 -19 22 -35 26 -35 5 0 8 -7 8 -15
0 -8 5 -15 10 -15 6 0 10 -5 10 -12 0 -6 11 -26 25 -44 14 -18 25 -37 25 -42
0 -6 4 -12 8 -14 12 -5 102 -134 102 -147 0 -6 4 -11 8 -11 5 0 17 -16 28 -35
10 -19 22 -35 26 -35 5 0 8 -7 8 -15 0 -8 3 -15 8 -15 4 0 21 -20 37 -45 17
-24 33 -45 38 -45 4 0 7 -5 7 -11 0 -12 70 -112 82 -117 5 -2 8 -10 8 -18 0
-8 3 -14 8 -14 4 0 18 -16 31 -35 13 -19 34 -47 47 -62 13 -16 24 -31 24 -35
0 -4 11 -18 25 -32 14 -14 25 -30 25 -36 0 -5 3 -10 8 -10 4 0 18 -17 32 -37
14 -20 30 -41 35 -47 6 -6 23 -29 40 -51 16 -22 34 -45 41 -52 15 -16 82 -43
105 -43 11 0 19 -4 19 -10 0 -5 8 -10 18 -10 10 0 47 -11 82 -25 35 -14 72
-25 82 -25 10 0 18 -4 18 -10 0 -5 7 -10 16 -10 15 0 148 -40 199 -60 11 -4
61 -20 110 -34 50 -15 98 -31 107 -36 10 -6 27 -10 38 -10 11 0 28 -4 38 -9 9
-5 46 -17 82 -26 36 -9 73 -21 82 -26 10 -5 28 -9 41 -9 13 0 27 -3 31 -7 6
-6 156 -48 216 -60 14 -2 34 -8 45 -13 30 -12 194 -52 238 -57 20 -3 37 -9 37
-14 0 -5 13 -9 30 -9 16 0 73 -11 126 -25 53 -14 106 -25 118 -25 12 0 26 -4
32 -9 5 -5 27 -11 49 -14 22 -3 63 -10 90 -16 100 -21 211 -43 260 -51 28 -5
73 -13 100 -18 159 -30 302 -53 435 -71 41 -5 129 -17 195 -26 140 -20 248
-32 395 -44 58 -5 191 -16 295 -25 274 -24 1540 -24 1830 0 380 30 590 53 865
95 36 5 92 14 125 19 33 5 76 12 95 15 167 28 219 38 246 46 17 5 43 9 59 9
16 0 42 4 59 9 17 6 69 17 116 26 47 9 99 20 116 26 17 5 44 9 62 9 17 0 34 4
37 10 3 5 16 10 29 10 13 0 58 10 102 21 43 12 93 23 109 26 17 2 39 8 50 13
19 8 174 47 225 57 14 2 34 8 45 13 11 5 31 11 45 13 14 3 50 13 80 22 30 9
70 19 88 22 18 3 35 9 38 14 3 5 18 9 33 9 15 0 31 4 37 8 5 5 38 17 74 26 36
10 73 22 82 27 10 5 29 9 43 9 14 0 25 5 25 10 0 6 8 10 18 10 9 0 49 12 87
25 39 14 78 25 88 25 9 0 17 5 17 10 0 6 7 10 16 10 21 0 117 31 128 41 6 5
19 9 31 9 12 0 25 4 31 8 5 4 34 16 64 26 57 19 93 32 122 47 10 5 25 9 33 9
8 0 23 4 33 9 9 5 37 17 62 27 48 19 63 33 101 89 13 19 27 35 32 35 4 0 7 7
7 15 0 8 3 15 8 15 4 0 18 16 31 35 13 19 32 44 42 56 11 12 19 25 19 28 0 3
14 20 30 38 17 18 30 35 30 38 0 7 46 70 73 99 9 11 17 26 17 33 0 7 4 13 8
13 4 0 16 14 26 32 18 30 38 56 62 82 5 6 19 26 29 44 11 17 23 32 27 32 4 0
8 4 8 10 0 9 87 139 100 150 4 3 15 20 25 38 11 17 23 32 27 32 4 0 8 5 8 10
0 12 52 94 63 98 4 2 7 10 7 17 0 7 3 15 8 17 10 4 62 85 62 97 0 5 4 11 8 13
11 4 82 115 82 127 0 5 4 11 8 13 11 4 82 115 82 128 0 6 4 10 9 10 5 0 11 8
15 18 3 9 30 57 61 106 30 49 55 93 55 97 0 5 4 9 8 9 5 0 14 16 22 35 8 19
16 35 20 35 3 0 19 26 35 58 17 31 33 59 36 62 3 3 23 39 45 80 21 41 44 80
50 87 6 6 17 26 24 45 8 18 16 35 19 38 6 5 59 104 120 225 20 39 39 72 44 73
4 2 7 12 7 22 0 10 3 20 8 22 9 4 62 110 62 126 0 6 3 12 8 12 4 0 21 32 37
70 17 38 33 70 38 70 4 0 7 6 7 13 0 6 16 45 35 84 19 40 35 77 35 83 0 5 5
10 10 10 6 0 10 7 10 15 0 15 3 24 34 82 9 17 16 38 16 47 0 9 5 16 10 16 6 0
10 7 10 15 0 8 4 23 9 33 39 75 61 127 61 143 0 10 5 19 10 19 6 0 10 7 10 15
0 8 4 23 9 33 5 9 19 42 31 72 12 30 28 69 35 85 7 17 18 46 25 65 18 48 40
101 51 122 5 10 9 25 9 33 0 8 4 23 9 33 6 9 22 51 36 92 15 41 30 84 35 95
18 42 60 174 60 189 0 9 4 16 9 16 5 0 11 12 14 27 2 16 17 66 32 113 15 47
30 97 32 113 3 15 9 27 14 27 5 0 9 11 9 25 0 14 10 54 21 88 12 34 26 78 31
97 5 19 13 49 18 65 31 110 63 236 67 268 3 20 9 37 13 37 4 0 10 19 13 43 3
23 10 60 15 82 6 22 16 67 22 100 7 33 16 69 21 80 4 11 10 36 13 55 3 19 9
55 14 80 24 112 44 219 49 263 3 26 10 50 14 53 5 3 9 27 9 53 0 26 4 61 9 77
5 16 16 81 25 144 8 63 18 131 21 150 10 58 23 164 60 515 33 316 39 491 39
1155 -1 850 -3 885 -66 954 -10 11 -18 26 -18 33 0 7 -4 13 -8 13 -5 0 -17 16
-28 35 -10 19 -22 35 -26 35 -5 0 -8 7 -8 15 0 8 -4 15 -8 15 -4 0 -16 15 -27
33 -10 17 -27 39 -37 48 -10 9 -18 19 -18 22 0 9 -91 138 -117 167 -13 14 -23
29 -23 34 0 5 -8 16 -18 25 -10 9 -27 29 -38 46 -20 32 -33 48 -76 98 -15 18
-28 36 -28 41 0 5 -8 16 -18 25 -9 9 -31 34 -47 56 -35 47 -50 66 -87 110 -16
18 -28 36 -28 40 0 4 -15 21 -32 39 -18 17 -46 49 -62 71 -17 22 -38 47 -48
56 -10 9 -18 20 -18 24 0 4 -8 15 -18 24 -10 9 -31 34 -48 56 -16 21 -45 56
-64 75 -19 20 -48 54 -65 75 -16 21 -48 58 -70 81 -22 24 -53 58 -69 76 -84
95 -130 146 -255 277 -182 192 -406 416 -526 526 -54 50 -126 117 -160 150
-34 33 -80 74 -101 92 -21 17 -58 49 -81 70 -51 46 -137 121 -171 148 -13 11
-37 31 -52 45 -16 14 -40 34 -56 45 -15 11 -46 37 -68 57 -23 21 -45 38 -50
38 -5 0 -16 8 -25 18 -9 10 -34 31 -56 48 -22 16 -49 38 -60 49 -11 11 -27 25
-36 30 -17 11 -93 67 -119 88 -8 7 -40 30 -70 52 -30 22 -60 44 -67 50 -7 5
-19 16 -27 23 -8 6 -18 12 -21 12 -3 0 -18 11 -33 25 -15 14 -32 25 -39 25 -6
0 -13 4 -15 8 -4 11 -206 152 -218 152 -4 0 -10 3 -12 8 -4 10 -67 54 -100 71
-16 8 -28 18 -28 23 0 4 -5 8 -11 8 -6 0 -25 11 -43 25 -18 14 -38 25 -44 25
-7 0 -12 5 -12 10 0 6 -6 10 -14 10 -8 0 -16 3 -18 8 -4 10 -86 62 -98 62 -5
0 -10 4 -10 9 0 5 -11 12 -25 15 -14 4 -25 11 -25 16 0 6 -7 10 -15 10 -8 0
-15 5 -15 10 0 6 -5 10 -10 10 -6 0 -36 16 -66 35 -30 19 -59 35 -64 35 -6 0
-10 5 -10 10 0 6 -6 10 -14 10 -8 0 -21 6 -28 13 -7 6 -26 19 -43 27 -16 8
-32 18 -35 21 -5 5 -113 65 -205 113 -22 12 -42 23 -45 26 -3 3 -23 14 -45 25
-22 11 -41 23 -43 28 -2 4 -12 7 -22 7 -10 0 -20 3 -22 8 -4 10 -430 222 -445
222 -7 0 -13 5 -13 10 0 6 -5 10 -10 10 -6 0 -43 15 -83 34 -141 66 -188 86
-197 86 -6 0 -10 3 -10 8 0 4 -18 13 -40 19 -21 7 -63 24 -92 37 -117 52 -148
66 -154 66 -3 0 -22 7 -42 16 -43 19 -55 23 -147 59 -38 15 -79 31 -90 35 -11
5 -42 16 -70 26 -27 9 -54 21 -60 26 -5 4 -19 8 -32 8 -13 0 -23 5 -23 10 0 6
-6 10 -12 10 -20 -1 -183 54 -186 63 -2 4 -11 7 -20 7 -9 0 -48 11 -87 25 -38
13 -78 25 -87 25 -10 0 -18 5 -18 10 0 6 -11 10 -25 10 -14 0 -33 4 -43 9 -15
8 -128 44 -232 74 -19 5 -46 13 -60 18 -14 4 -54 15 -90 24 -36 9 -74 21 -85
25 -11 5 -31 11 -45 14 -14 3 -52 12 -85 22 -33 9 -77 18 -97 21 -21 3 -38 9
-38 14 0 12 -123 12 -135 0z m163 -197 c23 -3 45 -10 48 -15 3 -5 15 -9 26 -9
12 0 35 -4 52 -10 17 -5 58 -17 91 -26 33 -9 69 -20 80 -24 11 -5 31 -11 45
-13 28 -5 164 -45 195 -57 11 -4 61 -20 110 -35 50 -15 98 -31 107 -36 10 -5
25 -9 33 -9 8 0 23 -4 33 -10 26 -14 168 -60 186 -60 9 0 16 -4 16 -10 0 -5 8
-10 18 -10 19 0 107 -32 118 -43 4 -4 16 -7 26 -7 10 0 27 -4 38 -10 11 -5 29
-14 40 -20 11 -5 25 -10 31 -10 6 0 27 -7 47 -16 21 -9 46 -20 57 -24 11 -4
48 -20 83 -34 35 -14 70 -26 78 -26 8 0 14 -4 14 -10 0 -5 11 -10 25 -10 14 0
25 -4 25 -10 0 -5 6 -10 14 -10 14 0 58 -18 174 -71 35 -16 65 -29 67 -29 6 0
126 -55 189 -86 28 -13 56 -24 63 -24 7 0 13 -4 13 -10 0 -5 5 -10 11 -10 6 0
109 -49 228 -109 271 -136 305 -154 309 -163 2 -5 12 -8 23 -8 10 0 19 -3 19
-7 0 -5 20 -17 45 -28 25 -11 45 -22 45 -25 0 -3 15 -12 33 -19 17 -8 38 -21
45 -28 7 -7 20 -13 28 -13 8 0 14 -4 14 -10 0 -5 9 -10 20 -10 11 0 20 -4 20
-9 0 -5 8 -12 18 -15 9 -3 26 -12 37 -19 11 -7 54 -32 95 -56 41 -25 76 -48
78 -53 2 -4 8 -8 13 -8 5 0 40 -19 77 -42 77 -50 101 -64 122 -74 8 -4 21 -13
30 -20 40 -32 241 -164 250 -164 6 0 10 -3 10 -8 0 -4 16 -16 35 -26 19 -11
35 -23 35 -28 0 -4 6 -8 13 -8 7 0 24 -11 39 -25 15 -14 32 -25 38 -25 5 0 10
-4 10 -10 0 -5 7 -10 15 -10 8 0 15 -4 15 -10 0 -5 5 -10 10 -10 10 0 22 -8
55 -37 7 -7 18 -13 24 -13 6 0 11 -3 11 -7 0 -5 16 -19 35 -32 19 -13 44 -32
56 -42 12 -11 25 -19 29 -19 4 0 21 -13 38 -30 18 -16 35 -30 40 -30 4 0 18
-10 32 -22 14 -13 43 -36 65 -53 22 -16 45 -34 51 -40 19 -16 46 -38 89 -70
22 -17 50 -39 62 -50 38 -34 52 -45 59 -45 4 0 14 -8 23 -18 9 -9 45 -42 81
-72 36 -30 75 -65 88 -77 13 -13 26 -23 31 -23 4 0 36 -28 72 -63 36 -35 75
-70 88 -79 12 -9 75 -65 139 -125 64 -59 143 -133 175 -163 90 -84 308 -303
447 -451 69 -72 135 -142 148 -155 12 -13 22 -26 22 -29 0 -3 24 -29 53 -58
28 -29 77 -82 107 -117 30 -36 62 -72 72 -81 10 -9 18 -20 18 -24 0 -4 8 -15
18 -24 9 -9 42 -45 72 -81 30 -35 67 -78 83 -94 15 -16 27 -32 27 -36 0 -5 12
-21 28 -38 15 -16 41 -47 57 -67 17 -21 36 -44 43 -51 6 -7 12 -16 12 -20 0
-4 10 -16 23 -28 12 -12 35 -39 52 -61 16 -22 34 -45 40 -51 5 -6 19 -23 30
-38 11 -15 27 -36 36 -46 8 -10 23 -29 32 -42 10 -13 53 -71 97 -130 44 -58
80 -111 80 -117 0 -6 3 -11 8 -11 4 0 21 -20 37 -45 17 -24 33 -45 38 -45 4 0
7 -5 7 -10 0 -10 8 -22 38 -55 6 -7 12 -18 12 -24 0 -6 3 -11 8 -11 4 0 25
-28 47 -63 22 -34 48 -71 57 -81 9 -10 20 -37 22 -60 25 -198 35 -1033 16
-1357 -27 -464 -49 -716 -85 -979 -9 -63 -19 -142 -22 -175 -3 -33 -9 -64 -14
-70 -5 -5 -9 -31 -9 -58 0 -27 -4 -66 -9 -86 -5 -20 -17 -81 -26 -136 -9 -55
-21 -114 -26 -131 -5 -17 -9 -47 -9 -67 0 -20 -4 -38 -9 -41 -4 -3 -11 -27
-14 -53 -3 -27 -13 -79 -22 -118 -25 -111 -34 -152 -44 -197 -5 -24 -21 -88
-36 -143 -15 -55 -30 -117 -32 -137 -3 -21 -9 -38 -14 -38 -5 0 -9 -13 -9 -30
0 -16 -4 -39 -9 -52 -5 -13 -17 -52 -26 -88 -9 -36 -21 -73 -26 -82 -5 -10 -9
-27 -9 -38 0 -11 -4 -28 -9 -38 -5 -9 -17 -46 -27 -82 -9 -36 -21 -69 -26 -75
-4 -5 -8 -17 -8 -27 0 -10 -4 -26 -9 -36 -13 -26 -61 -180 -61 -197 0 -8 -4
-15 -10 -15 -5 0 -10 -9 -10 -20 0 -10 -5 -32 -11 -47 -20 -49 -26 -67 -44
-118 -16 -49 -30 -85 -44 -115 -4 -8 -16 -43 -27 -77 -10 -35 -22 -63 -26 -63
-5 0 -8 -11 -8 -25 0 -14 -4 -25 -10 -25 -5 0 -10 -6 -10 -14 0 -8 -12 -43
-26 -78 -14 -35 -30 -72 -34 -83 -4 -11 -20 -46 -34 -78 -14 -32 -26 -64 -26
-72 0 -8 -4 -15 -10 -15 -5 0 -10 -11 -10 -25 0 -14 -4 -25 -10 -25 -5 0 -10
-5 -10 -12 0 -6 -9 -30 -19 -52 -11 -23 -31 -68 -46 -101 -15 -33 -38 -83 -51
-111 -13 -28 -24 -56 -24 -62 0 -7 -4 -12 -10 -12 -5 0 -10 -5 -10 -12 0 -15
-143 -302 -152 -306 -5 -2 -8 -9 -8 -15 0 -15 -53 -121 -62 -125 -5 -2 -8 -12
-8 -23 0 -10 -4 -19 -10 -19 -5 0 -10 -4 -10 -9 0 -5 -16 -37 -35 -71 -19 -34
-35 -68 -35 -76 0 -8 -4 -14 -8 -14 -5 0 -17 -19 -28 -42 -10 -24 -21 -45 -25
-48 -3 -3 -12 -20 -20 -37 -8 -18 -17 -33 -20 -33 -3 0 -14 -20 -25 -45 -10
-25 -22 -45 -26 -45 -4 0 -8 -7 -8 -15 0 -8 -4 -15 -10 -15 -5 0 -10 -4 -10
-10 0 -5 -31 -62 -70 -126 -38 -65 -70 -121 -70 -126 0 -4 -4 -8 -9 -8 -5 0
-11 -8 -15 -17 -3 -10 -11 -27 -18 -37 -49 -74 -98 -158 -98 -166 0 -6 -4 -10
-10 -10 -5 0 -10 -6 -10 -14 0 -8 -3 -16 -7 -18 -11 -4 -63 -86 -63 -98 0 -5
-4 -10 -10 -10 -5 0 -10 -6 -10 -14 0 -8 -3 -16 -7 -18 -11 -4 -63 -86 -63
-98 0 -5 -4 -10 -8 -10 -5 0 -17 -16 -28 -35 -10 -19 -22 -35 -26 -35 -5 0 -8
-7 -8 -15 0 -8 -4 -15 -10 -15 -5 0 -10 -7 -10 -15 0 -8 -4 -15 -10 -15 -5 0
-10 -7 -10 -15 0 -8 -3 -15 -8 -15 -4 0 -16 -16 -26 -35 -11 -19 -23 -35 -28
-35 -4 0 -8 -5 -8 -11 0 -11 -50 -82 -62 -87 -5 -2 -8 -9 -8 -15 0 -7 -11 -25
-25 -41 -14 -16 -25 -32 -25 -36 0 -3 -8 -15 -18 -26 -10 -11 -27 -33 -38 -49
-18 -29 -30 -44 -66 -87 -10 -12 -18 -24 -18 -27 0 -3 -14 -22 -30 -41 -16
-19 -30 -40 -30 -47 0 -6 -3 -13 -8 -15 -4 -1 -25 -28 -47 -58 -22 -30 -50
-66 -62 -80 -13 -14 -23 -28 -23 -32 0 -5 -13 -22 -30 -40 -16 -17 -30 -35
-30 -39 0 -5 -7 -9 -15 -9 -8 0 -15 -3 -15 -7 0 -5 -28 -17 -63 -27 -34 -11
-69 -23 -77 -27 -37 -17 -70 -30 -145 -54 -44 -14 -88 -30 -97 -35 -10 -6 -26
-10 -36 -10 -10 0 -22 -4 -28 -8 -5 -4 -36 -16 -69 -26 -33 -10 -68 -22 -77
-27 -10 -5 -25 -9 -33 -9 -8 0 -23 -4 -33 -9 -9 -5 -55 -21 -102 -35 -47 -14
-121 -37 -165 -51 -44 -14 -87 -25 -97 -25 -9 0 -20 -4 -23 -10 -3 -5 -22 -10
-41 -10 -19 0 -34 -4 -34 -10 0 -5 -10 -10 -22 -10 -13 0 -52 -9 -88 -21 -36
-11 -83 -24 -105 -29 -22 -5 -58 -14 -80 -20 -37 -10 -98 -26 -202 -50 -24 -6
-62 -14 -85 -20 -24 -5 -74 -17 -113 -25 -38 -9 -90 -20 -115 -26 -25 -6 -63
-13 -85 -15 -22 -3 -49 -9 -60 -14 -11 -5 -38 -11 -60 -14 -22 -3 -76 -13
-120 -21 -80 -16 -143 -27 -252 -44 -253 -41 -298 -47 -508 -70 -44 -5 -143
-17 -220 -26 -441 -52 -1240 -74 -1760 -47 -418 22 -551 33 -890 73 -44 5
-118 13 -165 18 -47 5 -139 18 -205 30 -66 11 -138 22 -160 26 -105 15 -166
25 -240 40 -87 17 -162 31 -240 45 -27 4 -104 20 -170 35 -66 15 -138 31 -160
36 -57 11 -110 24 -185 44 -36 9 -83 21 -105 25 -93 20 -134 30 -195 50 -36
11 -75 20 -87 20 -12 0 -25 5 -28 10 -3 6 -17 10 -30 10 -13 0 -34 4 -47 9
-13 5 -52 17 -88 26 -36 9 -73 21 -82 26 -10 5 -29 9 -42 9 -14 0 -28 5 -31
10 -3 6 -14 10 -22 10 -20 0 -180 48 -205 61 -10 5 -27 9 -37 9 -11 0 -22 4
-25 9 -3 5 -22 12 -42 16 -20 3 -44 10 -53 15 -9 4 -70 25 -136 46 -66 21
-124 41 -129 46 -6 4 -17 8 -26 8 -29 0 -142 49 -159 69 -28 34 -45 55 -75 96
-17 22 -33 42 -36 45 -3 3 -23 30 -45 60 -22 30 -43 60 -47 65 -63 80 -78 102
-78 113 0 6 -3 12 -7 12 -5 0 -21 20 -38 45 -16 24 -33 45 -37 45 -5 0 -8 5
-8 10 0 6 -11 23 -25 38 -14 15 -25 32 -25 39 0 6 -3 13 -8 15 -12 5 -82 105
-82 117 0 6 -4 11 -10 11 -5 0 -10 7 -10 15 0 8 -4 15 -8 15 -4 0 -16 15 -27
33 -10 17 -21 34 -25 37 -4 3 -28 39 -54 80 -27 41 -52 76 -57 78 -5 2 -9 8
-9 12 0 8 -38 71 -58 95 -4 6 -11 17 -15 25 -9 19 -30 53 -37 60 -3 3 -19 28
-35 55 -15 28 -31 52 -34 55 -3 3 -13 19 -21 35 -8 17 -22 38 -31 48 -9 10
-24 36 -34 57 -10 22 -22 40 -27 40 -4 0 -8 7 -8 15 0 8 -3 15 -8 15 -4 0 -16
20 -27 45 -11 25 -23 45 -26 45 -3 0 -11 16 -19 35 -8 19 -16 35 -20 35 -3 0
-19 26 -35 58 -17 31 -32 59 -35 62 -3 3 -14 23 -25 45 -11 22 -22 42 -25 45
-3 3 -12 19 -20 35 -8 17 -17 32 -20 35 -3 3 -14 24 -25 47 -11 24 -23 43 -27
43 -5 0 -8 9 -8 19 0 11 -3 21 -7 23 -5 1 -42 71 -83 153 -41 83 -78 152 -82
153 -5 2 -8 8 -8 13 0 9 -105 236 -130 281 -6 10 -10 24 -10 32 0 8 -4 16 -8
18 -4 1 -20 32 -36 68 -123 282 -186 433 -186 446 0 7 -4 14 -10 14 -5 0 -10
11 -10 25 0 14 -4 25 -9 25 -5 0 -11 10 -14 23 -8 39 -52 152 -59 155 -5 2 -8
12 -8 23 0 11 -4 27 -9 37 -5 9 -17 37 -26 62 -9 25 -21 53 -26 62 -5 10 -9
26 -9 36 0 10 -4 22 -8 27 -5 6 -21 51 -37 100 -15 50 -32 94 -37 100 -4 5 -8
17 -8 27 0 10 -4 26 -9 36 -5 9 -21 58 -36 107 -15 50 -31 98 -36 107 -5 10
-9 26 -9 35 0 10 -12 50 -25 88 -14 39 -25 80 -25 92 0 12 -4 25 -10 28 -5 3
-10 19 -10 34 0 15 -3 31 -7 35 -9 9 -54 179 -60 228 -3 21 -9 38 -13 38 -4 0
-10 17 -13 38 -3 20 -12 66 -21 102 -26 104 -44 185 -61 265 -37 173 -48 228
-56 275 -6 30 -14 78 -19 105 -54 307 -64 375 -115 780 -55 443 -79 964 -72
1612 l5 512 24 43 c13 24 26 45 29 48 3 3 8 10 10 15 8 20 123 190 131 193 4
2 8 10 8 18 0 8 3 14 8 14 4 0 16 16 26 35 11 19 23 35 28 35 4 0 8 5 8 11 0
11 82 132 107 157 7 7 13 17 13 21 0 4 8 16 18 27 10 10 45 57 77 104 33 47
70 96 82 110 13 14 23 28 23 33 0 4 10 18 22 31 13 12 34 39 48 59 14 20 28
37 33 37 4 0 7 6 7 14 0 8 3 16 8 18 4 2 28 28 52 58 25 30 53 62 63 71 9 9
17 20 17 23 0 4 6 13 13 20 6 7 26 30 42 51 17 21 35 43 40 49 6 6 35 40 65
76 30 36 66 76 80 90 14 14 32 35 40 46 52 75 697 731 850 864 41 35 82 72 90
80 8 9 44 40 79 70 36 30 83 72 105 93 23 20 44 37 47 37 4 0 24 17 45 38 22
20 57 51 79 67 22 16 47 37 56 47 9 10 19 18 23 18 7 0 17 7 65 50 16 14 45
37 65 50 20 14 36 28 36 33 0 4 5 7 11 7 6 0 16 6 23 13 34 32 67 57 76 57 6
0 10 3 10 8 0 4 16 18 35 31 19 13 44 32 56 42 12 11 25 19 29 19 3 0 15 8 26
18 10 10 73 56 139 102 66 46 122 86 125 89 10 13 90 61 100 61 5 0 10 4 10 8
0 5 16 17 35 28 19 10 35 22 35 26 0 5 5 8 10 8 6 0 16 5 23 10 25 21 88 60
97 60 6 0 10 4 10 8 0 4 25 21 55 37 30 17 55 33 55 38 0 4 7 7 15 7 8 0 15 4
15 8 0 5 18 17 40 27 22 10 40 22 40 27 0 4 7 8 15 8 8 0 15 3 15 8 0 4 20 16
45 27 25 11 45 23 45 28 0 4 7 7 15 7 8 0 15 5 15 10 0 6 4 10 9 10 5 0 55 27
111 60 56 33 105 60 110 60 5 0 10 3 12 8 2 4 21 16 43 28 22 11 74 39 115 62
41 22 109 59 150 81 123 67 556 281 568 281 7 0 12 3 12 8 0 4 21 16 48 26 47
19 131 56 232 103 30 14 64 29 75 33 11 5 45 20 75 33 30 13 87 36 125 52 39
16 74 32 80 37 5 4 19 8 32 8 13 0 23 5 23 10 0 6 7 10 15 10 8 0 38 11 67 25
28 14 57 25 63 25 6 0 29 9 51 19 22 11 52 23 67 26 15 4 30 11 33 16 3 5 14
9 25 9 10 0 27 4 37 9 25 13 61 27 117 46 28 9 59 20 70 25 20 8 140 52 200
72 17 5 39 14 50 18 11 5 58 21 105 36 47 15 94 30 105 34 65 25 175 60 189
60 9 0 24 4 34 9 27 14 180 61 197 61 8 0 23 4 33 9 59 30 96 33 210 15z"/>
<path d="M7485 14438 c-16 -6 -38 -14 -47 -19 -10 -5 -27 -9 -38 -9 -11 0 -28
-4 -38 -9 -9 -5 -44 -16 -77 -26 -33 -9 -68 -21 -77 -26 -10 -5 -27 -9 -38 -9
-11 0 -28 -4 -38 -9 -9 -5 -44 -17 -77 -27 -33 -10 -64 -22 -69 -26 -6 -4 -23
-8 -38 -8 -15 0 -28 -4 -28 -10 0 -5 -7 -10 -16 -10 -15 0 -150 -43 -189 -60
-11 -5 -56 -21 -100 -35 -73 -24 -103 -35 -145 -54 -8 -4 -43 -16 -77 -26 -35
-11 -63 -23 -63 -27 0 -5 -9 -8 -20 -8 -11 0 -28 -4 -38 -9 -15 -8 -59 -26
-127 -51 -21 -8 -32 -12 -133 -54 -35 -14 -70 -26 -78 -26 -8 0 -14 -4 -14
-10 0 -5 -6 -10 -13 -10 -7 0 -37 -11 -65 -25 -29 -14 -58 -25 -66 -25 -8 0
-18 -4 -21 -10 -3 -5 -15 -10 -26 -10 -10 0 -19 -4 -19 -10 0 -5 -7 -10 -16
-10 -9 0 -30 -7 -47 -16 -58 -30 -67 -34 -81 -34 -8 0 -16 -3 -18 -7 -4 -11
-75 -43 -93 -43 -8 0 -15 -4 -15 -10 0 -5 -6 -10 -12 -10 -7 0 -44 -16 -82
-35 -39 -19 -76 -35 -83 -35 -7 0 -13 -4 -13 -10 0 -5 -5 -10 -12 -10 -11 0
-297 -139 -308 -150 -3 -3 -32 -18 -65 -35 -33 -16 -86 -45 -118 -62 -33 -18
-65 -33 -73 -33 -8 0 -14 -4 -14 -9 0 -5 -20 -17 -45 -28 -25 -10 -45 -21 -45
-25 0 -5 -7 -8 -15 -8 -8 0 -15 -4 -15 -9 0 -5 -8 -11 -17 -14 -10 -3 -45 -22
-78 -41 -33 -20 -78 -46 -100 -57 -22 -12 -42 -25 -45 -28 -3 -4 -22 -16 -43
-27 -73 -36 -77 -39 -77 -46 0 -5 -5 -8 -10 -8 -10 0 -90 -48 -100 -61 -3 -3
-20 -12 -37 -20 -18 -8 -33 -16 -33 -19 0 -3 -16 -14 -35 -24 -19 -11 -35 -23
-35 -28 0 -4 -5 -8 -10 -8 -12 0 -94 -52 -98 -62 -2 -5 -10 -8 -17 -8 -7 0
-15 -3 -17 -7 -4 -11 -86 -63 -98 -63 -5 0 -10 -4 -10 -8 0 -4 -15 -16 -32
-27 -18 -10 -35 -21 -38 -25 -12 -14 -109 -80 -118 -80 -6 0 -12 -3 -14 -8 -1
-4 -28 -25 -58 -47 -30 -22 -64 -48 -74 -57 -11 -10 -23 -18 -27 -18 -5 0 -19
-11 -33 -25 -14 -14 -29 -25 -33 -25 -5 0 -19 -10 -33 -22 -14 -13 -43 -36
-65 -52 -22 -17 -42 -32 -45 -36 -3 -3 -23 -18 -45 -35 -22 -16 -45 -34 -51
-40 -6 -5 -28 -23 -49 -40 -21 -16 -44 -36 -51 -42 -7 -7 -16 -13 -20 -13 -3
0 -14 -8 -23 -18 -9 -9 -36 -33 -61 -53 -25 -20 -70 -59 -100 -87 -30 -29 -59
-52 -63 -52 -4 0 -27 -19 -50 -42 -23 -24 -76 -72 -117 -108 -41 -35 -201
-191 -355 -345 -257 -259 -349 -355 -467 -490 -23 -27 -52 -59 -63 -71 -11
-12 -29 -32 -39 -45 -45 -56 -122 -145 -138 -160 -10 -9 -18 -21 -18 -26 0 -5
-16 -26 -35 -46 -19 -20 -35 -39 -35 -42 0 -5 -33 -45 -57 -71 -7 -7 -13 -15
-13 -18 0 -4 -13 -20 -30 -38 -16 -17 -30 -35 -30 -39 0 -4 -11 -19 -25 -33
-14 -14 -25 -28 -25 -31 0 -4 -6 -12 -12 -20 -7 -7 -22 -25 -32 -40 -11 -14
-28 -36 -38 -47 -10 -12 -18 -24 -18 -27 0 -3 -11 -19 -25 -35 -13 -16 -39
-52 -57 -80 -18 -28 -36 -52 -40 -54 -5 -2 -8 -10 -8 -18 0 -8 -4 -14 -8 -14
-4 0 -16 -15 -27 -32 -10 -18 -24 -38 -30 -45 -7 -6 -27 -35 -46 -65 -18 -29
-37 -54 -41 -56 -5 -2 -8 -10 -8 -17 0 -7 -3 -15 -7 -17 -11 -4 -63 -86 -63
-98 0 -5 -4 -10 -10 -10 -5 0 -10 -6 -10 -14 0 -8 -3 -16 -7 -18 -5 -1 -20
-21 -34 -43 -41 -64 -50 -215 -50 -838 0 -295 3 -542 6 -547 4 -6 11 -90 16
-188 11 -217 22 -345 44 -527 9 -77 21 -176 26 -220 16 -136 43 -314 65 -430
9 -49 20 -112 25 -140 14 -85 26 -147 44 -230 33 -152 36 -170 41 -205 3 -19
9 -44 13 -55 5 -11 16 -56 26 -100 9 -44 21 -89 25 -100 5 -11 11 -33 13 -50
3 -16 10 -46 16 -65 5 -19 17 -62 26 -95 9 -33 21 -76 26 -95 6 -19 13 -46 15
-60 3 -14 9 -34 13 -45 5 -11 21 -63 36 -115 15 -52 31 -104 35 -115 21 -57
60 -186 60 -200 0 -8 5 -15 10 -15 6 0 10 -9 10 -20 0 -10 4 -29 9 -42 5 -13
22 -57 36 -98 15 -41 30 -84 35 -95 5 -11 20 -54 35 -95 15 -41 31 -86 37
-100 6 -14 14 -34 18 -45 4 -11 20 -48 34 -83 14 -35 26 -70 26 -78 0 -8 5
-14 10 -14 6 0 10 -11 10 -25 0 -14 5 -25 10 -25 6 0 10 -7 10 -15 0 -8 12
-40 26 -72 15 -32 33 -74 41 -93 8 -19 24 -53 34 -76 10 -22 19 -46 19 -52 0
-7 5 -12 10 -12 6 0 10 -11 10 -25 0 -14 5 -25 10 -25 6 0 10 -6 10 -14 0 -8
11 -34 25 -57 14 -24 25 -52 25 -61 0 -10 5 -18 10 -18 6 0 10 -6 10 -12 0
-21 279 -570 293 -576 4 -2 7 -12 7 -22 0 -10 3 -20 8 -22 9 -4 51 -76 59
-101 3 -9 9 -17 14 -17 5 0 9 -9 9 -20 0 -11 3 -20 8 -20 8 0 15 -12 47 -79
11 -22 23 -41 27 -41 5 0 8 -4 8 -10 0 -5 16 -34 35 -64 19 -30 35 -58 35 -61
0 -5 50 -86 60 -95 3 -3 12 -18 20 -35 8 -16 17 -32 20 -35 13 -13 60 -91 60
-100 0 -5 5 -10 10 -10 6 0 10 -7 10 -15 0 -8 4 -15 8 -15 4 0 21 -25 37 -55
17 -30 33 -55 38 -55 4 0 7 -4 7 -10 0 -5 16 -32 35 -59 19 -26 35 -53 35 -60
0 -6 4 -11 8 -11 5 0 17 -16 28 -35 10 -19 22 -35 26 -35 5 0 8 -6 8 -14 0 -8
3 -16 8 -18 4 -2 23 -27 41 -56 19 -30 39 -59 46 -65 6 -7 20 -27 30 -45 11
-17 23 -32 27 -32 4 0 8 -7 8 -15 0 -8 4 -15 8 -15 4 0 16 -15 27 -33 10 -17
21 -34 25 -37 3 -3 28 -36 55 -75 27 -38 53 -71 57 -73 5 -2 8 -10 8 -18 0 -8
3 -14 8 -14 4 0 18 -17 32 -37 14 -20 30 -41 35 -47 6 -6 23 -29 40 -51 16
-22 34 -45 40 -51 5 -6 21 -27 35 -47 14 -20 28 -37 33 -37 4 0 7 -6 7 -13 0
-15 23 -28 95 -52 28 -9 58 -21 67 -26 10 -5 26 -9 36 -9 10 0 22 -3 25 -7 11
-10 109 -43 129 -43 10 0 18 -4 18 -10 0 -5 11 -10 25 -10 14 0 33 -4 43 -10
17 -9 124 -45 212 -70 25 -7 77 -23 115 -35 63 -20 98 -30 190 -56 17 -5 53
-15 80 -22 28 -8 68 -19 90 -25 124 -32 235 -62 271 -73 17 -5 40 -9 52 -9 12
0 30 -4 40 -9 9 -5 53 -16 97 -26 44 -9 90 -21 103 -26 13 -5 38 -9 57 -9 19
0 36 -4 39 -9 3 -5 23 -11 43 -14 21 -3 74 -13 118 -22 44 -9 98 -19 120 -21
22 -3 49 -9 60 -14 11 -5 40 -11 65 -14 25 -2 83 -12 130 -21 47 -9 108 -19
135 -22 28 -2 59 -8 70 -13 11 -5 47 -11 80 -14 33 -2 110 -12 170 -21 61 -9
151 -21 200 -26 85 -10 125 -14 385 -38 580 -54 1355 -53 1955 1 291 26 461
44 505 53 28 6 141 22 240 35 80 11 158 24 270 45 47 9 110 21 140 26 113 20
248 48 345 71 22 5 58 13 80 18 22 4 72 16 110 25 39 9 81 19 95 22 14 2 34 8
45 13 11 5 31 11 45 13 14 3 70 17 125 32 55 16 115 30 133 33 18 2 35 8 38
13 3 5 13 9 22 9 10 0 53 11 97 25 44 14 98 30 120 37 22 6 72 22 111 35 39
12 78 23 87 23 9 0 17 5 17 10 0 6 13 10 28 10 15 0 32 4 38 8 5 4 36 16 69
27 33 10 64 22 69 27 6 4 23 8 38 8 15 0 28 5 28 10 0 6 9 10 20 10 17 0 66
18 112 41 10 5 25 9 33 9 8 0 23 4 33 9 9 5 37 17 62 26 25 9 53 21 62 26 10
5 26 9 37 9 11 0 30 15 42 32 13 18 31 40 41 49 10 9 18 20 18 23 0 4 6 13 13
21 6 7 21 25 31 40 11 14 28 36 38 47 10 12 18 24 18 28 0 4 14 21 30 38 16
18 30 34 30 37 0 8 74 110 82 113 5 2 8 10 8 18 0 8 4 14 8 14 4 0 16 15 27
32 10 18 21 35 25 38 3 3 23 30 45 60 22 30 43 57 47 58 5 2 8 8 8 13 0 9 49
89 61 99 15 14 99 139 99 149 0 6 3 11 8 11 4 0 16 16 26 35 11 19 23 35 28
35 4 0 8 7 8 15 0 8 5 15 10 15 6 0 10 5 10 10 0 12 52 94 63 98 4 2 7 8 7 13
0 9 69 121 80 129 4 3 9 10 11 15 10 26 124 210 131 213 4 2 8 10 8 18 0 8 5
14 10 14 6 0 10 9 10 20 0 11 4 20 8 20 4 0 21 26 37 58 17 31 34 62 38 67 15
19 73 121 102 180 17 33 33 61 38 63 4 2 7 10 7 18 0 8 5 14 10 14 6 0 10 9
10 20 0 11 4 20 8 20 5 0 17 20 28 45 10 25 22 45 26 45 4 0 8 8 8 18 0 10 4
22 9 28 15 14 201 387 201 402 0 6 5 12 10 12 6 0 10 6 10 13 0 6 16 45 35 84
19 40 35 77 35 83 0 5 5 10 10 10 6 0 10 7 10 15 0 15 3 24 34 82 9 17 16 38
16 47 0 9 5 16 10 16 6 0 10 7 10 15 0 8 4 23 9 33 25 47 61 134 61 147 0 8 5
15 10 15 6 0 10 7 10 15 0 8 4 23 9 33 5 9 22 49 36 87 15 39 32 81 38 95 19
48 26 65 43 115 9 28 21 54 26 59 4 6 8 18 8 28 0 10 4 26 10 36 5 9 21 53 35
97 15 44 30 89 34 100 5 11 21 58 35 105 15 47 32 93 37 102 5 10 9 27 9 38 0
11 4 28 9 38 15 26 61 181 61 202 0 10 4 21 9 24 5 3 11 20 14 38 2 18 12 60
22 93 10 33 19 71 22 85 2 14 8 34 13 45 5 11 11 34 15 50 13 64 24 112 40
175 17 69 30 127 45 200 5 25 14 68 19 95 42 203 53 266 71 380 5 33 16 103
25 155 32 193 62 450 84 725 6 77 16 194 23 260 7 76 11 336 11 710 0 671 -7
800 -52 872 -14 24 -29 43 -33 43 -5 0 -8 5 -8 11 0 6 -6 17 -12 24 -30 33
-38 45 -38 55 0 5 -3 10 -8 10 -4 0 -16 16 -26 35 -11 19 -23 35 -27 35 -4 0
-11 9 -14 20 -3 11 -12 26 -18 32 -7 7 -30 38 -52 68 -22 30 -48 64 -57 74
-10 11 -18 23 -18 27 0 5 -11 19 -25 33 -14 14 -25 28 -25 31 0 4 -6 12 -12
20 -7 7 -22 25 -32 39 -11 15 -30 39 -43 54 -13 15 -23 30 -23 33 0 4 -16 24
-35 45 -19 21 -35 41 -35 45 0 5 -11 19 -25 33 -14 14 -25 28 -25 31 0 3 -10
17 -22 30 -35 37 -48 54 -48 61 0 4 -8 14 -18 23 -9 9 -42 45 -72 81 -30 36
-58 67 -62 68 -5 2 -8 8 -8 13 0 6 -10 20 -22 33 -13 12 -36 39 -53 60 -16 21
-46 55 -65 75 -19 20 -48 52 -63 71 -30 38 -112 128 -220 243 -38 39 -103 110
-145 156 -81 88 -292 298 -401 398 -35 32 -98 91 -140 132 -42 40 -93 87 -114
105 -22 17 -58 48 -80 69 -23 21 -62 55 -87 75 -25 20 -52 44 -60 52 -8 9 -33
29 -55 46 -22 16 -49 38 -61 50 -12 11 -44 38 -70 60 -27 21 -56 47 -65 56 -9
10 -20 18 -25 18 -5 0 -26 16 -46 35 -20 19 -41 35 -47 35 -6 0 -11 3 -11 8 0
4 -17 18 -37 32 -20 14 -41 30 -47 35 -6 6 -29 24 -51 40 -22 17 -46 36 -53
43 -7 6 -16 12 -20 12 -4 0 -23 14 -42 30 -19 16 -40 30 -47 30 -6 0 -13 3
-15 8 -1 4 -37 32 -78 61 -41 30 -76 58 -78 63 -2 4 -8 8 -13 8 -6 0 -15 5
-22 10 -25 21 -88 60 -97 60 -6 0 -10 4 -10 8 0 4 -15 16 -32 27 -18 10 -42
27 -52 37 -11 10 -26 18 -33 18 -7 0 -13 5 -13 10 0 6 -7 10 -15 10 -8 0 -15
3 -15 8 0 4 -26 22 -57 40 -75 42 -94 54 -110 69 -7 6 -33 22 -58 34 -25 12
-45 26 -45 31 0 4 -7 8 -15 8 -8 0 -15 5 -15 10 0 6 -5 10 -10 10 -6 0 -29 12
-51 26 -36 22 -85 50 -154 88 -11 6 -22 13 -25 16 -3 3 -31 18 -62 35 -32 16
-58 33 -58 37 0 4 -7 8 -15 8 -9 0 -26 6 -38 14 -34 22 -146 84 -197 108 -25
12 -46 26 -48 30 -2 4 -9 8 -15 8 -15 0 -121 53 -125 63 -2 4 -10 7 -17 7 -7
0 -44 16 -81 35 -131 66 -217 105 -231 105 -7 0 -13 5 -13 10 0 6 -8 10 -18
10 -10 0 -27 7 -38 15 -10 8 -27 15 -36 15 -10 0 -18 5 -18 10 0 6 -9 10 -19
10 -11 0 -23 5 -26 10 -3 6 -13 10 -21 10 -8 0 -37 11 -66 25 -28 14 -58 25
-65 25 -7 0 -13 5 -13 10 0 6 -6 10 -12 10 -7 0 -53 16 -103 36 -112 45 -115
46 -200 79 -38 15 -79 31 -90 35 -11 5 -54 20 -95 35 -41 15 -84 30 -95 35
-42 18 -174 60 -189 60 -9 0 -16 5 -16 10 0 6 -13 10 -28 10 -16 0 -32 3 -36
7 -9 9 -117 43 -138 43 -10 0 -18 5 -18 10 0 6 -9 10 -21 10 -11 0 -54 11 -95
25 -41 14 -83 25 -94 25 -10 0 -21 4 -24 9 -3 5 -20 11 -38 14 -18 3 -49 10
-68 16 -55 16 -153 42 -180 48 -14 2 -34 8 -45 13 -11 5 -33 11 -50 14 -16 3
-39 7 -50 10 -11 2 -33 0 -50 -6z m285 -1498 l0 -58 -67 -6 c-38 -3 -121 -8
-185 -12 l-118 -6 0 -67 0 -67 169 4 168 4 7 -62 c4 -34 5 -65 2 -68 -3 -3
-82 -7 -176 -10 l-170 -5 0 -83 0 -84 195 0 195 0 0 -70 0 -70 -275 0 -275 0
0 360 0 360 253 2 c138 2 258 1 265 -1 8 -2 12 -23 12 -61z m-736 28 c4 -20
16 -124 31 -273 3 -27 8 -88 11 -135 3 -47 10 -89 14 -95 11 -13 16 -177 6
-193 -4 -7 -31 -12 -72 -12 -70 0 -76 3 -129 75 -17 22 -34 45 -40 51 -5 6
-21 27 -35 47 -14 20 -28 37 -32 37 -5 0 -8 7 -8 15 0 8 -3 15 -7 15 -5 1 -30
32 -58 70 -27 39 -54 70 -58 70 -5 0 -6 -30 -3 -67 3 -38 8 -108 12 -158 3
-49 10 -94 15 -99 5 -6 9 -27 9 -48 0 -41 -1 -42 -92 -52 -31 -4 -50 -1 -55 7
-4 6 -11 53 -16 102 -7 89 -19 208 -32 315 -3 30 -10 100 -15 156 -5 55 -12
108 -16 117 -5 14 0 17 29 17 20 0 39 5 42 10 3 6 23 10 43 10 31 0 41 -6 61
-35 13 -19 34 -47 47 -62 13 -16 24 -31 24 -35 0 -4 11 -18 25 -32 14 -14 25
-30 25 -36 0 -5 3 -10 8 -10 4 0 18 -17 32 -37 14 -20 35 -47 48 -59 12 -13
22 -27 22 -31 0 -14 58 -74 64 -65 2 4 1 14 -5 22 -5 8 -9 48 -9 88 0 40 -4
81 -9 90 -4 9 -11 65 -15 124 l-6 107 63 4 c34 2 65 4 69 5 4 1 10 -8 12 -20z
m1343 -6 c34 -9 78 -30 98 -47 21 -16 44 -34 51 -38 8 -4 14 -15 14 -22 0 -8
4 -15 8 -15 11 0 32 -61 32 -92 0 -26 -2 -26 -70 -30 -82 -4 -90 -2 -90 20 0
26 -41 68 -84 86 -96 40 -200 -3 -241 -100 -25 -59 -24 -212 1 -261 23 -46 31
-54 68 -73 37 -19 187 -21 194 -2 2 7 12 12 23 12 16 0 19 7 19 44 l0 44 -65
4 c-36 2 -69 8 -75 14 -5 5 -6 35 -3 67 l6 59 86 -6 c47 -3 118 -9 156 -13
l70 -8 -2 -50 c-1 -27 -5 -89 -8 -137 -6 -75 -11 -91 -33 -113 -13 -14 -33
-25 -43 -25 -11 0 -19 -4 -19 -10 0 -5 -11 -10 -24 -10 -13 0 -26 -5 -28 -12
-6 -18 -221 -17 -280 2 -27 8 -48 18 -48 22 0 4 -7 8 -15 8 -8 0 -15 4 -15 10
0 5 -11 12 -24 16 -13 3 -28 16 -35 30 -6 13 -15 24 -21 24 -5 0 -10 7 -10 15
0 8 -4 15 -8 15 -10 0 -35 74 -53 153 -10 45 -10 66 -1 91 7 18 12 44 12 58 0
14 7 39 15 54 8 16 15 37 15 47 0 9 5 17 10 17 6 0 10 5 10 10 0 6 21 32 48
58 43 43 76 64 143 91 39 16 149 12 216 -7z m556 -99 c20 -3 37 -9 37 -13 0
-4 17 -10 38 -13 20 -3 66 -13 102 -22 36 -9 82 -19 103 -22 20 -3 37 -9 37
-14 0 -5 15 -9 33 -9 18 0 38 -5 45 -12 15 -15 16 -74 2 -83 -5 -3 -10 -15
-10 -26 0 -15 -7 -19 -34 -19 -19 0 -37 4 -40 9 -3 5 -20 11 -38 14 -48 8
-150 32 -168 39 -8 4 -31 8 -50 11 -32 4 -37 2 -47 -21 -6 -15 -14 -42 -17
-61 -7 -41 12 -60 61 -61 17 0 34 -4 37 -9 3 -5 20 -11 38 -14 86 -14 170 -35
180 -45 8 -8 8 -26 -2 -68 l-14 -56 -55 7 c-31 4 -60 11 -66 16 -5 5 -24 9
-41 9 -18 0 -35 4 -38 9 -3 5 -23 11 -43 14 -21 3 -53 9 -70 13 -29 5 -33 4
-33 -14 0 -12 -4 -24 -10 -27 -5 -3 -10 -17 -10 -30 0 -13 -5 -35 -11 -49 -15
-32 3 -51 51 -59 41 -6 192 -43 236 -57 17 -5 40 -10 53 -10 25 0 39 -26 22
-43 -6 -6 -11 -25 -11 -43 0 -42 -22 -61 -55 -46 -13 6 -47 14 -75 18 -28 4
-53 11 -56 15 -3 5 -20 9 -39 9 -19 0 -37 5 -40 10 -3 6 -21 10 -39 10 -18 0
-36 3 -40 8 -7 6 -53 17 -161 39 -40 8 -45 18 -29 61 7 20 13 49 14 64 0 15 5
30 10 33 6 3 10 22 10 41 0 19 4 34 9 34 5 0 11 17 14 38 3 20 13 66 22 102 9
36 19 82 22 103 3 20 9 40 14 43 5 3 9 20 9 39 0 19 5 37 10 40 6 3 10 16 10
27 0 12 6 37 12 56 11 31 15 33 43 27 16 -3 47 -9 68 -12z m-2949 -67 c-3 -14
-10 -26 -15 -26 -5 0 -9 -6 -9 -12 0 -7 -30 -73 -67 -146 -41 -82 -63 -136
-56 -140 12 -8 81 -63 97 -77 6 -5 40 -35 76 -65 36 -30 72 -62 80 -70 8 -9
33 -29 55 -45 22 -17 48 -39 58 -49 17 -19 17 -20 -15 -32 -29 -10 -61 -20
-134 -39 -17 -4 -36 8 -86 57 -35 35 -88 83 -117 108 -29 25 -62 53 -74 63
-11 9 -21 17 -23 17 -2 0 -17 -28 -34 -62 -31 -66 -37 -93 -20 -103 6 -3 10
-16 10 -29 0 -12 3 -26 7 -30 6 -6 31 -88 33 -107 0 -10 -49 -29 -75 -29 -13
0 -27 -4 -30 -10 -12 -19 -44 -11 -50 13 -19 71 -29 103 -37 112 -4 5 -8 21
-8 36 0 15 -4 31 -10 34 -5 3 -10 15 -10 26 0 10 -4 27 -9 37 -5 9 -16 44 -26
77 -9 33 -21 68 -26 77 -5 10 -9 29 -9 43 0 14 -4 25 -10 25 -5 0 -10 10 -10
23 0 22 -25 107 -41 139 -15 30 -10 36 44 53 28 9 59 20 67 24 24 13 40 1 40
-30 0 -16 4 -29 9 -29 5 0 11 -12 14 -27 11 -62 32 -133 39 -133 5 0 8 -13 8
-30 0 -16 5 -30 10 -30 6 0 10 7 10 14 0 8 11 36 25 62 14 26 25 53 25 60 0 8
5 14 10 14 6 0 10 9 10 20 0 11 5 20 10 20 6 0 10 5 10 10 0 6 11 33 25 62 14
28 25 56 25 60 0 16 45 55 70 61 14 3 50 12 80 20 30 7 56 13 58 11 2 -1 0
-13 -4 -28z m3574 -105 c9 -5 44 -17 77 -27 33 -10 64 -22 70 -26 5 -4 19 -8
31 -8 13 0 26 -4 29 -10 3 -5 17 -10 30 -10 13 0 26 -4 30 -9 3 -5 19 -12 35
-16 17 -4 30 -11 30 -16 0 -5 9 -9 20 -9 11 0 20 -4 20 -10 0 -5 6 -10 14 -10
8 0 25 -15 37 -32 13 -18 27 -34 31 -36 4 -2 8 -34 8 -72 0 -51 -5 -78 -22
-110 -23 -43 -85 -100 -109 -100 -11 0 -77 -20 -88 -27 -6 -3 23 -63 31 -63 5
0 8 -16 8 -35 0 -19 4 -35 9 -35 5 0 11 -17 14 -37 3 -21 11 -62 17 -91 20
-93 18 -94 -74 -63 -74 25 -79 28 -92 66 -7 22 -14 50 -14 62 0 12 -4 25 -10
28 -5 3 -10 21 -10 40 0 19 -4 36 -8 39 -5 3 -15 30 -22 61 -11 46 -20 61 -49
81 -48 32 -81 32 -81 -1 0 -14 -4 -25 -10 -25 -5 0 -10 -8 -10 -17 0 -18 -45
-155 -62 -190 -9 -18 -14 -20 -32 -11 -41 21 -52 26 -84 33 -18 3 -32 12 -32
18 0 7 12 44 25 82 14 39 25 78 25 88 0 9 5 17 10 17 6 0 10 11 10 25 0 14 5
25 10 25 6 0 10 7 10 16 0 18 46 160 60 186 6 10 10 26 10 36 0 10 4 22 9 28
4 5 16 34 25 64 23 73 39 110 49 110 4 0 15 -4 25 -9z m-4328 -127 c0 -8 4
-22 9 -32 20 -37 61 -144 61 -158 0 -8 5 -14 10 -14 6 0 10 -6 10 -14 0 -7 7
-27 15 -42 8 -16 15 -37 15 -46 0 -9 5 -20 10 -23 6 -3 10 -15 10 -26 0 -10 5
-19 10 -19 6 0 10 -9 10 -19 0 -11 5 -23 10 -26 6 -3 10 -13 10 -22 0 -8 7
-31 16 -51 9 -21 21 -48 26 -62 6 -14 16 -36 23 -50 15 -31 9 -50 -16 -50 -10
0 -19 -4 -19 -10 0 -5 -11 -10 -25 -10 -14 0 -25 -4 -25 -10 0 -5 -10 -10 -23
-10 -19 0 -28 11 -46 53 -13 28 -32 71 -42 95 -11 24 -22 57 -26 73 -3 16 -9
29 -14 29 -5 0 -9 11 -9 25 0 14 -4 25 -10 25 -5 0 -10 9 -10 19 0 11 -4 23
-10 26 -5 3 -10 13 -10 20 0 8 -11 38 -24 67 -55 122 -65 147 -72 172 -3 14
-10 29 -15 32 -17 10 -9 34 10 34 11 0 23 5 26 10 3 6 15 10 26 10 10 0 19 4
19 9 0 11 38 19 58 13 6 -2 12 -10 12 -18z m-329 -131 c8 -16 16 -30 19 -33
10 -10 60 -116 60 -128 0 -6 3 -12 8 -12 4 0 16 -20 27 -45 11 -25 23 -45 27
-45 5 0 8 -6 8 -12 0 -16 53 -122 63 -126 4 -2 7 -12 7 -23 0 -10 5 -19 10
-19 6 0 10 -7 10 -15 0 -8 5 -15 10 -15 6 0 10 -6 10 -12 0 -7 12 -36 26 -65
32 -62 29 -68 -50 -108 l-53 -27 -41 26 c-23 14 -46 26 -52 26 -5 0 -10 4 -10
9 0 5 -25 21 -55 37 -30 16 -55 32 -55 37 0 4 -7 7 -15 7 -8 0 -15 4 -15 8 0
5 -18 17 -40 27 -21 10 -47 25 -57 34 -24 22 -93 54 -100 47 -4 -3 -1 -6 5 -6
7 0 12 -9 12 -19 0 -11 3 -21 8 -23 4 -1 32 -52 62 -113 30 -60 58 -111 63
-113 4 -2 7 -12 7 -23 0 -10 3 -19 8 -19 4 0 12 -12 19 -26 14 -31 6 -42 -44
-65 -18 -7 -33 -18 -33 -22 0 -21 -46 1 -60 28 -8 17 -18 32 -22 33 -5 2 -8
12 -8 22 0 10 -3 20 -7 22 -10 4 -63 110 -63 125 0 6 -3 13 -8 15 -4 2 -25 39
-47 83 -22 44 -43 82 -47 83 -5 2 -8 12 -8 22 0 10 -3 20 -7 22 -9 3 -63 109
-63 121 0 5 -7 15 -15 23 -23 23 -18 33 25 51 22 10 40 21 40 25 0 5 9 8 20 8
11 0 20 5 20 10 0 10 38 -7 50 -21 3 -4 24 -16 46 -27 23 -12 48 -27 56 -34 8
-7 23 -18 33 -24 61 -33 91 -50 100 -57 33 -24 87 -57 95 -57 4 0 10 -3 12 -7
2 -5 18 -16 36 -26 l32 -18 -17 38 c-10 21 -21 40 -25 41 -5 2 -8 12 -8 22 0
10 -3 20 -7 22 -10 4 -63 110 -63 126 0 6 -3 12 -8 12 -4 0 -13 15 -21 33 -8
17 -17 34 -20 37 -4 3 -12 18 -19 34 -11 25 -10 30 5 42 10 7 24 14 31 14 6 0
12 4 12 8 0 7 40 27 61 31 3 1 12 -11 20 -26z m5389 -23 c0 -5 6 -10 13 -10
25 0 78 -32 74 -44 -32 -80 -46 -111 -74 -166 -18 -35 -33 -70 -33 -77 0 -7
-4 -13 -10 -13 -5 0 -10 -6 -10 -13 0 -6 -16 -45 -35 -84 -19 -40 -35 -77 -35
-83 0 -5 -4 -10 -10 -10 -5 0 -10 -9 -10 -20 0 -11 -4 -20 -10 -20 -5 0 -10
-8 -10 -18 0 -10 -7 -27 -15 -38 -8 -10 -15 -25 -15 -32 0 -8 -9 -27 -20 -42
-19 -26 -22 -27 -48 -15 -15 7 -43 20 -64 30 -41 19 -41 29 1 115 11 24 21 50
21 57 0 7 5 13 10 13 6 0 10 9 10 20 0 11 5 20 10 20 6 0 10 5 10 10 0 10 46
113 96 213 13 27 24 55 24 63 0 8 5 14 10 14 6 0 10 4 10 9 0 5 12 36 28 70
23 53 31 61 55 61 15 0 27 -4 27 -10z m-6020 -321 c0 -21 -4 -39 -10 -39 -5 0
-10 -20 -10 -44 0 -25 -4 -48 -10 -51 -5 -3 -10 -21 -10 -40 0 -19 -4 -44 -9
-57 -15 -43 -22 -108 -10 -108 6 0 43 -16 83 -35 40 -19 78 -35 85 -35 6 0 11
-4 11 -10 0 -5 9 -10 20 -10 11 0 20 -4 20 -10 0 -5 4 -10 10 -10 10 0 185
-82 209 -99 18 -12 3 -27 -54 -56 -22 -11 -41 -23 -43 -27 -2 -5 -10 -8 -18
-8 -8 0 -14 -4 -14 -10 0 -12 -37 -14 -42 -2 -1 4 -37 24 -78 46 -41 21 -109
56 -150 77 -41 21 -78 39 -82 39 -5 0 -8 -15 -8 -34 0 -19 -4 -38 -10 -41 -24
-15 -9 -75 35 -144 25 -38 45 -74 45 -79 0 -6 6 -12 13 -15 12 -4 -29 -46 -46
-47 -4 0 -17 -9 -29 -20 -37 -34 -62 -24 -89 38 -7 17 -16 32 -19 32 -3 0 -14
16 -24 35 -11 19 -23 35 -28 35 -4 0 -8 9 -8 20 0 11 -4 20 -9 20 -5 0 -11 8
-15 18 -7 21 -25 49 -48 76 -10 11 -18 26 -18 33 0 7 -4 13 -9 13 -5 0 -12 11
-15 25 -4 14 -11 25 -16 25 -6 0 -10 7 -10 15 0 8 -4 15 -10 15 -5 0 -10 5
-10 10 0 9 -47 87 -60 100 -3 3 -13 19 -22 36 -17 30 -17 32 0 51 9 11 27 23
40 27 12 4 22 12 22 17 0 5 9 9 20 9 11 0 20 6 20 12 0 7 11 -4 25 -24 14 -20
25 -42 25 -47 0 -6 5 -11 10 -11 6 0 10 -7 10 -15 0 -8 4 -15 8 -15 5 0 17
-18 27 -40 10 -22 22 -40 27 -40 4 0 8 -5 8 -11 0 -6 7 -17 15 -25 13 -13 15
-12 19 8 9 42 28 162 33 216 3 29 9 55 14 58 5 3 9 23 9 45 0 49 14 63 100
106 19 9 42 25 50 34 20 24 30 14 30 -32z m6573 35 c9 -4 17 -10 17 -15 0 -5
7 -9 15 -9 8 0 15 -4 15 -10 0 -5 11 -12 25 -16 14 -3 25 -10 25 -15 0 -5 7
-9 16 -9 22 0 53 -32 36 -38 -6 -2 -12 -15 -12 -28 0 -13 -4 -32 -9 -42 -14
-27 -61 -178 -61 -196 0 -9 -4 -16 -10 -16 -5 0 -10 -13 -10 -28 0 -15 -4 -32
-9 -38 -4 -5 -11 -24 -15 -42 -8 -44 3 -36 138 93 154 147 197 184 211 178 8
-3 15 -9 15 -13 0 -4 8 -10 18 -14 9 -3 26 -11 37 -18 87 -56 106 -71 98 -77
-4 -3 -17 -23 -28 -44 -11 -21 -27 -46 -36 -55 -8 -9 -22 -32 -29 -49 -8 -18
-17 -33 -20 -33 -3 0 -14 -16 -24 -35 -11 -19 -23 -35 -28 -35 -4 0 -8 -9 -8
-20 0 -11 -4 -20 -9 -20 -5 0 -11 -8 -15 -17 -7 -22 -25 -50 -48 -77 -10 -11
-18 -26 -18 -33 0 -7 -4 -13 -9 -13 -5 0 -12 -11 -15 -25 -4 -14 -11 -25 -16
-25 -6 0 -10 -6 -10 -14 0 -8 -3 -16 -7 -18 -5 -1 -16 -16 -25 -33 -28 -50
-41 -52 -95 -19 -30 19 -49 38 -51 52 -2 12 1 22 7 22 6 0 11 7 11 15 0 8 4
15 9 15 5 0 12 11 15 25 4 14 11 25 16 25 6 0 10 7 10 15 0 8 5 15 10 15 6 0
10 6 10 13 0 7 8 22 19 33 10 11 22 30 25 42 4 12 12 22 17 22 5 0 9 4 9 10 0
5 16 35 36 66 20 30 34 58 31 60 -3 3 -80 -69 -172 -160 l-168 -164 -33 16
c-19 8 -34 19 -34 24 0 4 -5 8 -11 8 -17 0 -39 27 -39 50 0 22 45 173 61 202
5 10 9 27 9 37 0 11 5 23 10 26 6 3 10 17 10 30 0 13 4 25 9 27 5 2 12 23 16
47 7 41 6 44 -9 29 -9 -9 -16 -21 -16 -27 0 -6 -4 -11 -10 -11 -5 0 -10 -5
-10 -10 0 -12 -52 -94 -62 -98 -5 -2 -8 -10 -8 -18 0 -8 -3 -14 -7 -14 -5 0
-17 -18 -27 -40 -10 -22 -27 -48 -37 -59 -11 -11 -19 -24 -19 -29 0 -5 -8 -17
-19 -26 -15 -14 -23 -15 -45 -5 -14 7 -26 16 -26 21 0 4 -5 8 -11 8 -27 0 -54
62 -31 72 10 4 62 86 62 98 0 5 5 10 10 10 6 0 10 5 10 11 0 6 11 25 25 43 14
18 25 38 25 44 0 7 5 12 10 12 6 0 10 7 10 15 0 8 4 15 9 15 5 0 12 11 15 25
4 14 11 25 16 25 6 0 10 5 10 10 0 12 72 124 83 128 4 2 7 12 7 23 0 10 4 19
8 19 4 0 16 15 27 33 26 44 38 57 50 52 6 -3 18 -8 28 -11z m-2553 -413 c0
-11 5 -23 10 -26 6 -3 10 -19 10 -36 0 -16 4 -37 9 -47 11 -21 41 -159 41
-188 0 -11 4 -24 9 -30 5 -5 12 -29 15 -54 3 -25 10 -74 15 -110 27 -175 30
-219 31 -402 l0 -198 25 0 c14 0 33 -4 43 -9 15 -8 159 -46 222 -58 14 -2 34
-8 45 -13 11 -4 61 -21 110 -36 50 -16 92 -32 93 -36 2 -5 12 -8 22 -8 17 0
120 -39 162 -61 10 -5 25 -9 33 -9 8 0 15 -4 15 -10 0 -5 7 -10 15 -10 8 0 38
-11 67 -25 28 -14 57 -25 64 -25 7 0 14 -3 16 -7 4 -10 110 -63 126 -63 6 0
12 -3 12 -7 0 -5 12 -13 26 -20 28 -13 23 -17 110 78 43 46 126 123 188 174
21 17 43 36 51 43 7 6 17 12 21 12 3 0 14 8 23 18 9 10 31 27 49 37 17 11 32
23 32 27 0 4 5 8 10 8 9 0 87 47 100 60 3 3 19 12 35 20 17 8 32 18 35 21 3 3
23 14 45 25 22 10 42 21 45 24 3 3 24 14 48 24 49 22 36 29 156 -88 39 -38 94
-88 121 -112 28 -23 104 -95 170 -159 66 -64 137 -131 158 -148 21 -18 84 -77
141 -132 57 -55 129 -123 160 -150 32 -28 93 -85 138 -128 l81 -78 -18 -40
c-10 -21 -21 -39 -25 -39 -3 0 -12 -16 -20 -35 -8 -19 -17 -35 -22 -35 -4 0
-8 -6 -8 -14 0 -8 -6 -21 -12 -28 -7 -7 -20 -26 -28 -43 -8 -16 -17 -32 -20
-35 -13 -13 -60 -91 -60 -100 0 -5 -4 -10 -8 -10 -5 0 -17 -16 -28 -35 -10
-19 -22 -35 -26 -35 -5 0 -8 -7 -8 -15 0 -8 -4 -15 -8 -15 -4 0 -15 -12 -24
-27 -9 -16 -25 -37 -35 -48 -10 -11 -31 -38 -47 -60 -17 -22 -38 -47 -48 -56
-10 -9 -18 -19 -18 -23 0 -3 -16 -23 -35 -43 -42 -44 -43 -56 -10 -99 14 -18
25 -37 25 -43 0 -6 5 -11 10 -11 6 0 10 -7 10 -15 0 -8 4 -15 8 -15 5 0 17
-18 27 -40 10 -22 22 -40 27 -40 4 0 8 -7 8 -15 0 -8 5 -15 10 -15 6 0 10 -9
10 -20 0 -11 4 -20 9 -20 5 0 12 -11 15 -25 4 -14 11 -25 16 -25 6 0 10 -9 10
-20 0 -11 5 -20 10 -20 6 0 10 -7 10 -15 0 -8 5 -15 10 -15 6 0 10 -6 10 -12
0 -7 15 -44 34 -83 19 -38 41 -86 49 -105 8 -19 25 -57 37 -85 32 -73 37 -85
55 -140 9 -27 21 -58 26 -67 5 -10 9 -27 9 -38 0 -11 5 -20 10 -20 6 0 10 -13
10 -28 0 -15 4 -32 8 -37 5 -6 17 -44 27 -87 l19 -76 115 -6 c64 -3 146 -10
184 -16 37 -5 85 -10 107 -10 21 0 42 -4 45 -10 3 -5 19 -10 35 -10 17 0 73
-11 126 -25 53 -14 105 -25 115 -25 10 0 19 -4 19 -10 0 -5 8 -10 18 -10 9 0
40 -8 67 -18 l50 -18 6 -319 c4 -176 10 -510 14 -741 l8 -422 -49 -11 c-27 -7
-60 -15 -74 -17 -14 -3 -34 -9 -45 -14 -11 -5 -33 -11 -50 -14 -16 -2 -64 -12
-105 -21 -85 -19 -151 -32 -230 -45 -30 -5 -66 -11 -80 -15 -14 -3 -85 -9
-159 -13 -151 -8 -132 4 -161 -102 -6 -25 -16 -53 -21 -62 -5 -10 -9 -26 -9
-36 0 -10 -4 -22 -8 -27 -5 -6 -17 -38 -28 -72 -10 -35 -22 -63 -26 -63 -5 0
-8 -11 -8 -25 0 -14 -4 -25 -10 -25 -5 0 -10 -7 -10 -15 0 -8 -11 -38 -25 -67
-14 -28 -25 -58 -25 -65 0 -7 -4 -13 -10 -13 -5 0 -10 -6 -10 -12 0 -16 -53
-122 -62 -126 -5 -2 -8 -12 -8 -22 0 -10 -3 -20 -7 -22 -5 -1 -21 -28 -37 -58
-16 -30 -32 -57 -36 -60 -3 -3 -14 -21 -23 -40 -21 -41 -38 -70 -53 -86 -5 -6
-25 -37 -44 -68 -19 -31 -38 -56 -42 -56 -22 0 0 -29 82 -111 50 -50 90 -92
90 -95 0 -3 6 -11 13 -18 6 -7 26 -30 42 -50 17 -21 42 -53 57 -70 15 -17 28
-36 28 -41 0 -6 9 -17 20 -25 11 -8 20 -18 20 -23 0 -5 11 -23 25 -41 14 -18
25 -38 25 -44 0 -7 5 -12 10 -12 6 0 10 -6 10 -14 0 -8 3 -16 8 -18 4 -1 16
-21 27 -43 11 -22 22 -42 25 -45 10 -10 60 -116 60 -128 0 -6 5 -12 10 -12 6
0 10 -6 10 -13 0 -7 -143 -158 -318 -335 l-317 -322 -63 0 c-35 0 -62 4 -62
10 0 6 -28 10 -65 10 l-65 0 0 80 0 80 -245 0 -245 0 0 115 0 115 -130 0 -130
0 0 64 c0 105 32 96 -330 96 l-317 0 -6 218 c-5 214 -5 217 16 234 12 10 27
22 34 28 7 5 15 10 18 10 3 0 27 16 54 35 26 19 51 35 55 35 4 0 19 11 34 25
15 14 30 25 34 25 5 0 22 14 40 30 17 17 35 30 39 30 4 0 19 10 31 22 13 13
53 48 88 78 114 98 256 244 366 378 10 13 29 36 42 50 13 15 30 39 40 55 9 15
20 27 24 27 4 0 8 5 8 10 0 12 52 94 63 98 4 2 7 10 7 18 0 8 3 14 8 14 4 0
20 25 37 55 16 30 33 55 37 55 4 0 8 9 8 19 0 11 3 21 8 23 4 2 31 53 60 113
30 61 58 118 63 127 5 10 9 25 9 33 0 8 5 15 10 15 6 0 10 7 10 15 0 8 4 23
10 33 14 26 60 166 60 185 0 9 5 17 10 17 6 0 10 16 10 35 0 19 5 35 10 35 6
0 10 8 10 18 0 18 25 135 41 188 5 17 9 49 9 72 0 22 4 43 8 46 35 21 35 831
1 852 -5 3 -9 25 -9 50 0 24 -4 52 -9 62 -9 17 -27 100 -38 175 -3 20 -10 37
-14 37 -5 0 -9 16 -9 35 0 19 -4 35 -10 35 -5 0 -10 7 -10 16 0 23 -53 178
-62 182 -5 2 -8 15 -8 28 0 13 -4 24 -10 24 -5 0 -10 6 -10 13 0 29 -140 305
-191 379 -11 14 -19 31 -19 37 0 6 -4 11 -10 11 -5 0 -10 6 -10 14 0 8 -3 16
-7 18 -9 4 -63 85 -63 94 0 4 -8 14 -18 23 -10 9 -27 29 -38 46 -21 33 -35 51
-77 98 -15 18 -42 49 -60 71 -51 62 -216 226 -287 286 -36 30 -72 63 -81 72
-9 10 -20 18 -25 18 -5 0 -24 14 -43 31 -19 16 -80 60 -135 97 -56 37 -102 70
-104 75 -2 4 -12 7 -22 7 -10 0 -20 4 -22 9 -4 13 -216 131 -234 131 -8 0 -14
5 -14 10 0 6 -5 10 -12 10 -6 0 -30 9 -52 19 -23 10 -57 26 -76 34 -19 8 -57
24 -83 36 -27 12 -62 24 -78 28 -16 3 -32 10 -35 14 -3 5 -16 9 -30 9 -13 0
-24 4 -24 9 0 5 -12 11 -27 14 -27 5 -110 27 -183 48 -43 13 -91 23 -194 43
-43 9 -82 18 -85 22 -3 3 -7 58 -7 122 -2 127 -21 539 -30 640 -3 34 -10 62
-15 62 -5 0 -9 7 -9 15 0 8 -4 15 -10 15 -5 0 -12 11 -16 25 -3 14 -10 25 -14
25 -5 0 -12 9 -15 20 -3 11 -12 26 -18 33 -7 7 -19 26 -27 42 -9 17 -21 30
-26 30 -6 0 -33 -19 -60 -42 -27 -24 -51 -43 -55 -43 -7 0 -39 113 -39 139 0
11 -4 23 -10 26 -5 3 -10 22 -10 41 0 19 -4 34 -10 34 -5 0 -10 14 -10 30 0
17 -4 38 -10 48 -8 15 -20 69 -37 170 -3 18 -9 35 -14 38 -5 3 -9 21 -9 40 0
19 -4 34 -10 34 -5 0 -10 9 -10 21 0 36 -25 51 -65 40 -45 -12 -61 -29 -68
-71 -3 -19 -13 -71 -22 -115 -10 -44 -19 -99 -22 -122 -3 -24 -9 -43 -14 -43
-5 0 -9 -18 -9 -39 0 -22 -4 -42 -9 -45 -5 -3 -11 -23 -14 -43 -13 -85 -33
-179 -40 -190 -6 -9 -26 5 -68 47 -61 61 -79 71 -79 46 0 -8 -3 -16 -7 -18
-10 -4 -37 -48 -66 -108 -12 -25 -24 -47 -27 -50 -18 -18 -30 -57 -30 -99 0
-28 -4 -83 -10 -123 -5 -40 -12 -197 -16 -349 l-6 -276 -97 -17 c-53 -10 -106
-22 -119 -27 -13 -5 -36 -9 -52 -9 -16 0 -32 -4 -35 -10 -3 -5 -15 -10 -26
-10 -11 0 -44 -7 -72 -16 -29 -8 -70 -20 -92 -26 -22 -6 -44 -15 -50 -20 -5
-4 -19 -8 -31 -8 -13 0 -26 -4 -29 -10 -3 -5 -13 -10 -22 -10 -8 0 -31 -7 -51
-16 -21 -9 -46 -20 -57 -24 -34 -14 -98 -42 -139 -61 -22 -11 -46 -19 -53 -19
-7 0 -13 -4 -13 -10 0 -5 -9 -10 -20 -10 -11 0 -20 -4 -20 -8 0 -5 -19 -16
-42 -27 -24 -10 -45 -21 -48 -24 -3 -4 -24 -15 -47 -25 -24 -11 -43 -23 -43
-28 0 -4 -7 -8 -15 -8 -8 0 -15 -4 -15 -10 0 -5 -9 -10 -20 -10 -11 0 -20 -3
-20 -8 0 -4 -16 -16 -35 -26 -19 -11 -35 -23 -35 -28 0 -4 -5 -8 -11 -8 -12 0
-112 -70 -117 -82 -2 -5 -10 -8 -17 -8 -7 0 -15 -4 -17 -8 -1 -4 -21 -21 -43
-37 -22 -17 -60 -49 -85 -71 -25 -23 -61 -55 -80 -70 -41 -34 -170 -165 -222
-226 -20 -24 -46 -54 -58 -68 -12 -14 -35 -40 -51 -57 -16 -18 -29 -35 -29
-38 0 -4 -54 -81 -80 -112 -6 -7 -10 -17 -10 -23 0 -5 -4 -10 -9 -10 -5 0 -12
-8 -15 -18 -4 -10 -14 -27 -24 -38 -9 -10 -24 -32 -32 -49 -8 -16 -17 -32 -20
-35 -14 -14 -40 -61 -40 -74 0 -8 -4 -16 -8 -18 -9 -3 -120 -228 -142 -288 -7
-19 -17 -39 -22 -45 -4 -5 -8 -19 -8 -32 0 -13 -4 -23 -10 -23 -5 0 -10 -7
-10 -15 0 -14 -42 -154 -61 -200 -4 -11 -10 -33 -14 -50 -3 -16 -13 -64 -21
-105 -46 -219 -56 -324 -56 -590 -1 -199 7 -324 27 -440 11 -69 36 -196 44
-225 20 -72 35 -125 57 -192 13 -39 24 -78 24 -87 0 -9 5 -16 10 -16 6 0 10
-10 10 -23 0 -13 4 -27 9 -32 4 -6 17 -32 27 -60 10 -27 26 -65 36 -83 10 -18
18 -39 18 -47 0 -8 5 -15 10 -15 6 0 10 -6 10 -14 0 -8 15 -40 33 -73 17 -32
41 -75 52 -96 11 -21 28 -47 38 -57 9 -11 17 -26 17 -35 0 -8 5 -15 10 -15 6
0 10 -7 10 -15 0 -8 4 -15 8 -15 5 0 14 -10 19 -22 6 -13 18 -32 27 -43 39
-50 86 -116 86 -120 0 -3 13 -20 29 -38 44 -48 70 -78 99 -116 41 -52 188
-198 272 -271 41 -36 77 -67 80 -70 3 -3 23 -18 45 -35 22 -16 45 -34 52 -41
6 -6 51 -38 100 -70 48 -32 90 -62 91 -66 2 -5 10 -8 18 -8 8 0 14 -3 14 -7 0
-5 18 -17 40 -27 69 -33 83 -52 75 -105 -3 -25 -9 -115 -11 -198 l-5 -153
-300 0 -299 0 0 -80 0 -80 -170 0 -170 0 0 -115 0 -115 -250 0 -250 0 0 -80 0
-80 -44 0 c-25 0 -48 -4 -51 -10 -3 -5 -29 -10 -57 -10 -38 0 -59 6 -82 24
-18 13 -161 153 -319 312 -236 237 -286 292 -281 309 4 11 10 22 14 25 3 3 9
12 12 21 9 25 140 224 149 227 5 2 9 9 9 15 0 7 11 24 25 39 14 15 25 32 25
38 0 5 4 10 9 10 5 0 12 8 16 19 3 10 19 33 35 50 17 17 30 34 30 38 0 5 17
26 38 49 20 23 50 58 66 78 16 21 56 64 88 95 55 55 70 81 48 81 -5 0 -10 5
-10 10 0 6 -6 18 -12 26 -7 8 -17 20 -23 27 -5 7 -17 26 -25 42 -8 17 -23 39
-32 49 -10 11 -20 28 -24 38 -3 10 -9 18 -13 18 -4 0 -13 16 -21 35 -8 19 -17
35 -20 35 -4 0 -15 19 -26 43 -10 23 -21 44 -25 47 -3 3 -12 20 -20 38 -8 17
-16 32 -19 32 -3 0 -14 23 -25 50 -11 28 -23 50 -27 50 -4 0 -8 9 -8 20 0 11
-4 20 -10 20 -5 0 -10 7 -10 15 0 8 -11 38 -25 67 -14 28 -25 58 -25 65 0 7
-4 13 -10 13 -5 0 -10 10 -10 23 0 13 -3 27 -7 31 -11 11 -43 99 -43 119 0 9
-4 17 -10 17 -5 0 -10 14 -10 30 0 17 -4 30 -9 30 -5 0 -11 12 -14 28 -15 77
-30 124 -40 128 -7 2 -79 8 -162 14 -227 15 -279 21 -290 31 -5 5 -21 9 -36 9
-39 0 -218 43 -251 61 -10 5 -26 9 -36 9 -10 0 -22 3 -26 7 -3 4 -37 17 -74
29 l-67 21 3 729 c2 401 6 736 8 745 3 10 19 19 37 22 18 3 52 10 77 16 93 22
196 43 240 47 25 3 54 9 65 14 11 5 47 11 80 14 33 3 96 10 140 15 44 6 125
10 180 10 l101 1 13 48 c7 26 19 72 28 102 8 30 19 63 24 72 5 10 9 25 9 33 0
8 4 23 9 33 6 9 22 51 36 92 15 41 42 107 60 145 18 39 38 87 46 108 7 20 17
37 21 37 4 0 8 6 8 12 0 16 53 122 63 126 4 2 7 12 7 23 0 10 4 19 8 19 4 0
21 26 37 58 17 31 33 59 36 62 3 3 19 29 35 57 16 29 32 53 37 53 4 0 7 7 7
15 0 8 3 15 8 15 9 0 42 58 42 74 0 7 -31 45 -70 84 -38 39 -70 74 -70 78 0 4
-8 14 -18 23 -10 9 -31 34 -48 56 -16 22 -37 49 -47 59 -9 11 -17 23 -17 27 0
4 -6 14 -12 21 -27 28 -68 87 -68 97 0 6 -4 11 -10 11 -5 0 -10 9 -10 20 0 11
-4 20 -9 20 -5 0 -21 26 -37 58 -16 31 -32 59 -36 60 -5 2 -8 12 -8 23 0 10
-4 19 -10 19 -5 0 -10 4 -10 10 0 5 -12 34 -26 64 l-26 54 125 124 c68 68 204
200 301 293 98 94 279 270 404 393 125 122 232 222 239 222 16 0 73 -33 73
-42 0 -5 7 -8 15 -8 8 0 15 -3 15 -7 0 -5 18 -17 40 -27 22 -10 48 -27 59 -37
11 -11 23 -19 26 -19 9 0 90 -54 93 -62 2 -5 8 -8 14 -8 5 0 15 -6 23 -12 7
-7 25 -22 40 -32 14 -11 36 -28 47 -38 12 -10 24 -18 28 -18 3 0 15 -8 26 -17
10 -10 37 -31 59 -48 50 -37 132 -112 206 -187 53 -54 58 -57 83 -45 14 7 26
15 26 20 0 4 6 7 12 7 16 0 122 53 126 63 2 4 10 7 18 7 14 0 23 4 81 34 17 9
38 16 47 16 9 0 16 5 16 10 0 6 7 10 15 10 8 0 23 4 33 9 9 5 49 22 87 36 39
15 79 31 90 36 26 10 157 52 215 69 25 7 56 16 70 20 14 5 59 16 100 25 41 10
83 21 92 26 10 5 31 9 48 9 16 0 30 3 31 8 0 4 2 113 4 242 2 129 8 264 14
300 6 36 14 89 17 118 4 28 10 52 15 52 5 0 9 12 9 27 0 15 4 40 10 57 5 17
17 58 26 91 8 33 20 68 25 77 5 10 9 25 9 33 0 8 4 23 9 33 5 9 14 29 22 45
l12 27 744 0 c729 0 743 0 743 -19z m-4702 -202 c-29 -27 -56 -49 -60 -49 -4
0 -29 -21 -55 -48 -26 -26 -63 -58 -80 -70 -18 -13 -33 -28 -33 -34 0 -6 22
-32 49 -59 l49 -48 50 47 c27 26 67 61 88 79 21 17 56 48 77 68 l39 36 44 -46
c24 -26 44 -50 44 -52 0 -8 -49 -54 -95 -88 -22 -17 -58 -49 -81 -72 -23 -24
-45 -43 -49 -43 -3 0 -13 -6 -21 -14 -12 -13 -11 -18 11 -40 14 -14 25 -27 25
-30 0 -9 65 -76 73 -76 5 0 28 19 51 43 23 23 59 55 81 72 22 16 51 41 65 55
14 14 41 38 60 53 l36 26 19 -26 c11 -15 29 -36 41 -47 l21 -21 -57 -55 c-31
-30 -74 -68 -96 -85 -21 -16 -50 -41 -64 -55 -14 -14 -35 -33 -48 -42 -13 -8
-49 -40 -81 -71 l-58 -55 -54 60 c-30 33 -63 69 -74 81 -11 12 -45 51 -75 87
-30 36 -62 72 -70 80 -8 8 -40 44 -70 80 -30 36 -64 75 -75 86 -33 35 -55 64
-55 72 0 8 34 40 130 122 36 30 75 64 86 75 12 11 46 40 75 65 29 25 62 55 74
67 l20 22 48 -51 49 -50 -54 -49z m8153 -36 c87 -73 90 -78 83 -122 -4 -23
-11 -44 -15 -47 -5 -3 -9 -16 -9 -30 0 -13 -4 -24 -10 -24 -5 0 -10 -10 -10
-23 0 -13 -3 -27 -7 -31 -9 -9 -43 -117 -43 -138 0 -10 -4 -18 -10 -18 -5 0
-10 -11 -10 -25 0 -14 -4 -25 -10 -25 -5 0 -10 -8 -10 -17 0 -10 -11 -49 -25
-88 -13 -38 -25 -78 -25 -87 0 -10 -4 -18 -10 -18 -5 0 -10 -8 -10 -17 0 -27
-27 -97 -38 -101 -13 -4 -122 102 -122 120 0 8 4 18 8 24 5 5 17 35 28 67 18
57 18 59 0 69 -10 6 -44 33 -75 60 -31 27 -69 61 -85 75 -19 16 -31 22 -34 15
-2 -7 -12 -12 -23 -12 -10 0 -19 -4 -19 -10 0 -5 -6 -10 -14 -10 -8 0 -16 -3
-18 -7 -1 -5 -17 -15 -35 -25 -37 -19 -50 -12 -116 55 l-37 39 52 28 c29 15
87 46 128 69 41 23 83 45 93 48 9 3 17 9 17 14 0 5 9 9 20 9 11 0 20 4 20 8 0
5 19 17 43 28 23 10 44 21 47 24 3 3 19 12 35 20 17 8 32 18 35 21 3 3 23 14
45 25 22 10 42 21 45 24 4 5 91 50 97 50 2 0 12 -8 24 -17z m-4203 -309 c2
-16 8 -33 13 -38 5 -6 9 -25 9 -42 0 -18 5 -36 10 -39 6 -3 10 -21 10 -39 0
-18 3 -36 8 -40 6 -7 26 -87 39 -164 3 -18 9 -35 14 -38 5 -3 9 -18 9 -35 0
-16 4 -37 9 -47 5 -9 17 -316 25 -682 9 -366 19 -730 22 -810 6 -156 20 -697
33 -1245 20 -890 32 -1320 41 -1545 6 -135 10 -260 10 -277 l0 -33 -276 0
-276 0 6 123 c4 67 11 248 15 402 23 723 30 919 36 1035 6 117 16 432 36 1090
5 151 12 399 18 550 5 151 16 493 25 760 17 525 23 644 36 675 5 11 11 34 13
50 3 17 13 62 22 100 9 39 19 89 22 113 3 23 10 45 14 48 5 3 9 25 9 50 0 24
5 44 10 44 6 0 10 16 10 36 0 44 23 42 28 -2z m-4504 1 c8 -8 17 -15 21 -15 7
0 55 -47 55 -55 0 -3 -27 -33 -60 -67 -33 -33 -60 -67 -60 -74 0 -15 40 -57
100 -105 25 -20 67 -57 94 -83 27 -25 53 -46 57 -46 4 0 32 -24 62 -52 30 -29
71 -66 91 -81 l37 -28 -46 -44 c-25 -24 -45 -49 -45 -54 0 -21 -26 -16 -50 8
-14 15 -54 51 -89 81 -36 30 -85 74 -110 97 -26 24 -49 43 -53 43 -4 0 -31 24
-61 53 -30 28 -66 58 -80 66 -25 13 -28 12 -48 -10 -66 -77 -99 -109 -112
-109 -8 0 -33 17 -57 38 l-42 37 28 33 c16 18 52 57 79 86 28 29 59 64 69 77
10 13 37 45 60 70 23 25 61 69 86 97 25 29 48 52 52 52 4 0 13 -7 22 -15z
m9149 -127 c12 -13 34 -39 49 -58 l27 -35 -41 -35 c-22 -19 -53 -47 -68 -61
-16 -14 -45 -39 -66 -55 -21 -16 -56 -46 -78 -68 -23 -21 -57 -50 -76 -65 -19
-14 -52 -42 -74 -63 l-39 -36 49 -52 c27 -29 55 -59 62 -66 6 -7 12 -16 12
-19 0 -4 25 -32 55 -62 l55 -54 -35 -33 c-19 -18 -35 -36 -35 -40 0 -3 16 -6
35 -6 19 0 35 5 35 10 0 6 20 10 43 10 24 0 47 3 51 8 4 4 38 12 74 19 37 7
90 17 117 23 28 6 66 13 85 16 19 3 44 9 55 13 20 8 109 27 194 41 39 6 48 4
68 -16 13 -13 23 -30 23 -39 0 -8 4 -15 8 -15 4 0 15 -13 24 -28 16 -27 16
-29 -5 -53 -37 -40 -97 -126 -97 -138 0 -6 -3 -11 -7 -11 -5 0 -21 -21 -38
-45 -16 -25 -33 -45 -37 -45 -5 0 -8 -7 -8 -15 0 -8 -4 -15 -8 -15 -4 0 -16
-15 -27 -32 -10 -18 -21 -35 -25 -38 -3 -3 -23 -30 -45 -60 -22 -30 -43 -56
-47 -58 -5 -2 -8 -9 -8 -15 0 -7 -14 -28 -30 -47 -17 -19 -32 -42 -35 -52 -12
-34 -33 -27 -64 23 -17 28 -31 55 -31 60 0 5 -4 9 -10 9 -5 0 -10 7 -10 15 0
8 5 15 10 15 6 0 10 6 10 13 0 6 14 28 30 47 44 50 46 71 14 121 -15 24 -30
46 -34 49 -4 3 -9 10 -11 15 -2 6 -15 29 -29 53 -25 42 -26 43 -70 39 -25 -3
-64 -9 -87 -15 -23 -5 -46 -6 -51 -3 -5 3 -22 27 -38 53 -16 25 -53 71 -81
101 -29 31 -53 58 -53 62 0 4 -19 26 -43 48 -23 23 -56 60 -72 82 -17 22 -48
58 -70 80 -73 73 -73 68 -16 124 28 28 53 51 56 51 5 0 45 33 79 65 12 11 50
45 86 75 36 30 74 64 86 75 12 11 39 34 60 52 22 18 57 48 79 68 22 19 41 35
43 35 2 0 13 -10 25 -22z m-4932 -349 c21 -22 39 -48 39 -57 3 -83 -3 -367
-11 -592 -11 -295 -26 -740 -39 -1175 -14 -458 -28 -874 -35 -1005 -6 -115
-15 -390 -36 -1100 -21 -713 -18 -666 -42 -678 -12 -6 -59 -13 -105 -14 l-82
-3 0 85 c0 47 4 139 10 205 5 66 15 248 21 405 11 273 19 453 39 915 5 116 11
266 14 335 3 69 10 213 16 320 10 184 22 449 41 920 12 293 27 620 33 725 3
50 11 214 17 365 8 212 15 283 27 310 9 19 19 37 22 40 4 3 9 13 13 23 9 24
14 22 58 -24z m647 -51 c19 -41 22 -65 22 -165 1 -65 5 -203 11 -308 12 -233
29 -576 39 -830 20 -474 29 -657 34 -745 4 -52 12 -210 18 -350 6 -140 15
-343 20 -450 5 -107 12 -285 17 -395 24 -574 31 -734 40 -885 6 -91 12 -230
13 -310 l3 -145 -35 3 c-19 1 -71 5 -115 10 l-80 7 -2 70 c-1 39 -9 331 -18
650 -8 319 -17 663 -21 765 -6 221 -22 803 -33 1280 -26 1109 -31 1310 -42
1553 l-11 267 37 36 38 36 21 -23 c12 -13 32 -45 44 -71z m-5268 -8 c3 -3 23
-18 45 -35 22 -16 45 -34 51 -40 6 -5 23 -19 38 -30 16 -11 34 -26 41 -32 8
-7 16 -13 20 -13 3 0 17 -10 30 -22 35 -34 53 -48 60 -48 3 0 19 -13 37 -30
17 -16 34 -30 38 -30 4 0 25 -16 46 -35 21 -19 41 -35 45 -35 4 0 20 -13 37
-28 l30 -28 -22 -25 c-11 -13 -33 -40 -48 -58 -25 -30 -29 -31 -44 -17 -8 9
-19 16 -23 16 -4 0 -24 16 -45 35 -21 19 -42 35 -46 35 -4 0 -21 14 -38 30
-18 17 -35 30 -40 30 -4 0 -18 10 -32 23 -14 12 -43 35 -65 52 -22 16 -45 34
-51 40 -6 5 -27 21 -47 35 -20 14 -37 28 -37 33 0 4 -5 7 -10 7 -6 0 -22 10
-35 23 -13 12 -37 33 -53 47 -35 29 -33 36 28 99 44 45 46 45 90 1z m-396
-505 c8 -8 19 -15 25 -15 6 0 11 -4 11 -10 0 -5 5 -10 10 -10 12 0 94 -52 98
-62 2 -5 8 -8 13 -8 12 0 93 -52 97 -62 2 -5 10 -8 18 -8 8 0 14 -3 14 -7 0
-5 25 -21 55 -38 30 -16 55 -33 55 -37 0 -4 5 -8 12 -8 6 0 19 -7 28 -15 10
-9 23 -13 31 -10 12 5 55 69 68 100 2 6 7 12 10 15 11 9 56 74 69 100 30 58
39 65 69 49 16 -8 33 -18 38 -22 6 -4 19 -14 29 -21 11 -8 17 -19 13 -27 -10
-20 -31 -53 -38 -59 -3 -3 -28 -39 -54 -80 -26 -41 -51 -77 -54 -80 -8 -7 -27
-37 -47 -77 -9 -18 -20 -33 -25 -33 -5 0 -9 -7 -9 -15 0 -8 -4 -15 -9 -15 -5
0 -13 -9 -16 -20 -6 -20 -45 -29 -45 -10 0 6 -7 10 -15 10 -8 0 -15 4 -15 8 0
5 -15 16 -32 25 -36 19 -70 39 -78 47 -12 13 -91 60 -99 60 -5 0 -11 4 -13 8
-4 11 -115 82 -128 82 -6 0 -10 3 -10 8 0 4 -16 16 -35 26 -19 11 -35 23 -35
28 0 4 -9 8 -20 8 -11 0 -20 4 -20 8 0 5 -16 17 -35 28 -32 17 -49 54 -25 54
6 0 10 7 10 15 0 8 3 15 8 15 4 0 16 16 26 35 21 39 28 42 50 20z m10824 -293
c2 -12 8 -22 13 -22 5 0 9 -9 9 -20 0 -11 5 -20 10 -20 6 0 10 -16 10 -35 0
-19 -4 -35 -10 -35 -5 0 -10 -5 -10 -10 0 -6 -11 -23 -25 -38 -14 -15 -25 -31
-25 -37 0 -6 -9 -17 -20 -25 -11 -8 -20 -18 -20 -22 0 -8 -88 -136 -107 -156
-7 -7 -13 -16 -13 -20 0 -4 -11 -20 -25 -36 -14 -16 -25 -35 -25 -42 0 -14 31
-3 108 38 18 10 37 18 42 18 6 0 43 15 83 34 131 61 148 68 162 63 14 -6 45
-62 45 -83 0 -7 6 -14 12 -16 10 -4 9 -8 -2 -19 -19 -18 -86 -49 -105 -49 -8
0 -15 -4 -15 -10 0 -5 -6 -10 -13 -10 -7 0 -37 -11 -65 -25 -29 -14 -59 -25
-67 -25 -8 0 -15 -4 -15 -10 0 -5 -9 -10 -20 -10 -11 0 -20 -4 -20 -10 0 -5
-6 -10 -13 -10 -13 0 -59 -19 -99 -41 -10 -5 -25 -9 -33 -9 -8 0 -15 -4 -15
-10 0 -5 -6 -10 -13 -10 -7 0 -37 -11 -65 -25 -29 -14 -59 -25 -67 -25 -8 0
-15 -4 -15 -10 0 -5 -7 -7 -15 -4 -8 4 -15 15 -15 25 0 10 -4 19 -10 19 -5 0
-10 6 -10 14 0 8 -8 28 -17 44 -17 29 -16 31 10 65 15 20 27 40 27 46 0 6 4
11 8 11 4 0 16 15 27 33 10 17 21 34 25 37 13 10 100 138 100 147 0 5 9 15 20
23 11 8 20 20 20 26 0 7 7 20 16 29 21 21 10 31 -19 18 -12 -6 -38 -18 -57
-26 -71 -31 -232 -102 -267 -119 -28 -14 -39 -6 -63 49 -29 66 -26 75 28 97
26 11 84 36 129 58 46 21 85 38 89 38 3 0 39 16 80 35 40 19 75 35 78 35 4 0
120 51 191 85 37 17 49 14 53 -13z m-10782 -120 c5 -4 35 -16 67 -27 31 -10
57 -22 57 -27 0 -4 4 -8 10 -8 18 0 130 -102 130 -119 0 -6 3 -11 8 -11 16 0
34 -60 39 -131 4 -56 1 -91 -13 -137 -10 -34 -22 -62 -26 -62 -4 0 -8 -5 -8
-11 0 -6 -6 -16 -12 -23 -7 -8 -22 -24 -34 -37 -29 -33 -72 -69 -83 -69 -5 0
-11 -5 -13 -11 -7 -21 -142 -33 -217 -20 -39 7 -73 17 -77 22 -3 5 -14 9 -25
9 -10 0 -19 3 -19 8 0 4 -18 15 -41 25 -42 18 -139 107 -139 127 0 6 -7 18
-15 26 -8 9 -15 25 -15 38 0 12 -5 27 -11 33 -26 26 22 253 53 253 5 0 8 6 8
13 1 23 59 76 122 111 58 32 69 35 154 35 49 1 94 -3 100 -7z m4731 -92 c2
-25 -3 -70 -10 -100 -13 -57 -17 -61 -90 -89 -20 -8 -37 -18 -37 -23 0 -4 -9
-8 -20 -8 -11 0 -20 -3 -20 -7 0 -5 -20 -17 -45 -28 -25 -11 -45 -23 -45 -27
0 -5 -5 -8 -10 -8 -6 0 -23 -11 -38 -25 -15 -14 -30 -25 -35 -25 -4 0 -19 -11
-33 -25 l-25 -25 26 0 c14 0 25 -4 25 -9 0 -4 39 -11 88 -15 48 -4 121 -12
162 -20 l75 -12 -3 -180 c-2 -98 -8 -197 -12 -219 -5 -22 -11 -177 -15 -345
-4 -167 -9 -309 -13 -315 -3 -5 -10 -127 -14 -270 -9 -298 -19 -536 -43 -1030
-9 -192 -21 -442 -26 -555 -5 -113 -12 -229 -15 -258 l-6 -53 69 6 c37 4 75 9
83 12 31 12 304 25 510 25 266 0 490 -16 693 -48 l38 -6 -5 134 c-11 326 -26
653 -36 766 -5 68 -10 186 -10 263 0 77 -4 170 -10 207 -5 37 -12 146 -14 242
-17 550 -39 1038 -57 1254 -10 114 -10 152 -1 167 15 23 16 79 2 79 -6 0 -10
31 -10 74 l0 73 68 6 c37 4 84 7 105 7 20 0 37 5 37 10 0 6 19 10 43 10 24 0
51 6 62 13 17 13 16 15 -10 33 -15 10 -41 31 -57 47 -16 15 -36 27 -44 27 -8
0 -14 4 -14 9 0 5 -8 12 -18 15 -10 4 -27 14 -38 24 -23 20 -124 72 -142 72
-8 0 -13 22 -14 70 -1 39 -2 80 -2 93 -1 20 3 22 49 19 28 -2 54 -8 60 -13 5
-5 20 -9 35 -10 30 0 157 -33 166 -42 4 -4 20 -7 36 -7 15 0 28 -4 28 -10 0
-5 7 -10 16 -10 21 0 117 -31 129 -41 5 -5 19 -9 32 -9 13 0 23 -4 23 -10 0
-5 7 -10 15 -10 8 0 23 -4 33 -9 40 -22 86 -41 99 -41 7 0 13 -4 13 -10 0 -5
6 -10 12 -10 16 0 122 -53 126 -62 2 -5 12 -8 23 -8 10 0 19 -3 19 -8 0 -7 4
-10 77 -46 21 -11 40 -22 43 -26 11 -12 90 -60 100 -60 5 0 10 -3 10 -7 0 -5
21 -21 45 -38 25 -16 45 -33 45 -37 0 -5 5 -8 10 -8 11 0 25 -10 65 -47 13
-13 27 -23 30 -23 3 0 17 -10 30 -22 13 -13 51 -48 85 -78 90 -82 244 -242
286 -298 15 -20 31 -39 34 -42 3 -3 23 -30 45 -60 22 -30 43 -56 47 -58 5 -2
8 -8 8 -14 0 -6 11 -26 25 -44 14 -18 25 -37 25 -43 0 -6 5 -11 10 -11 6 0 10
-7 10 -15 0 -8 5 -15 10 -15 6 0 10 -5 10 -10 0 -6 12 -29 27 -53 40 -63 113
-207 113 -223 0 -8 5 -14 10 -14 6 0 10 -8 10 -18 0 -10 4 -22 8 -28 5 -5 17
-31 26 -59 10 -27 22 -61 28 -75 6 -14 14 -34 19 -45 15 -36 54 -178 79 -290
32 -141 63 -417 64 -560 0 -76 -24 -340 -40 -435 -9 -52 -18 -112 -21 -132 -3
-21 -9 -38 -14 -38 -5 0 -9 -13 -9 -30 0 -16 -4 -39 -9 -52 -4 -13 -16 -50
-26 -83 -9 -33 -21 -68 -26 -77 -5 -10 -9 -27 -9 -38 0 -11 -4 -20 -10 -20 -5
0 -10 -9 -10 -20 0 -11 -4 -28 -9 -38 -22 -40 -41 -86 -41 -99 0 -7 -4 -13
-10 -13 -5 0 -10 -9 -10 -20 0 -11 -4 -20 -10 -20 -5 0 -10 -6 -10 -12 0 -12
-50 -118 -60 -128 -3 -3 -14 -23 -25 -45 -11 -22 -23 -41 -27 -43 -5 -2 -8
-10 -8 -18 0 -8 -4 -14 -10 -14 -5 0 -10 -5 -10 -10 0 -10 -48 -88 -60 -100
-3 -3 -23 -30 -45 -60 -22 -30 -42 -57 -45 -60 -3 -3 -18 -23 -35 -45 -16 -22
-36 -47 -45 -55 -9 -8 -26 -28 -39 -45 -44 -58 -252 -265 -266 -265 -3 0 -22
-16 -42 -36 -21 -19 -67 -56 -103 -82 -36 -25 -74 -54 -84 -64 -11 -10 -28
-20 -38 -24 -10 -3 -18 -11 -18 -17 0 -7 -4 -6 -10 3 -5 8 -10 36 -10 61 0 36
5 50 25 67 14 12 30 22 35 22 6 0 10 3 10 8 0 4 16 18 36 32 20 13 50 36 66
51 46 41 57 49 63 49 3 0 59 54 124 119 l119 119 -31 12 c-18 6 -40 16 -49 21
-10 5 -27 9 -38 9 -11 0 -20 5 -20 10 0 6 -14 10 -30 10 -17 0 -47 7 -67 15
-19 8 -48 15 -64 15 -15 0 -31 5 -34 10 -3 6 -21 10 -40 10 -18 0 -35 4 -37 9
-1 4 -35 11 -74 15 -68 7 -71 6 -84 -19 -7 -14 -17 -25 -21 -25 -4 0 -10 -11
-13 -25 -4 -14 -11 -25 -16 -25 -6 0 -10 -7 -10 -15 0 -8 -9 -20 -20 -27 -11
-7 -20 -19 -20 -26 0 -7 -13 -27 -30 -45 -16 -18 -30 -35 -30 -39 0 -4 -15
-22 -32 -42 -18 -19 -51 -56 -73 -82 -22 -26 -46 -52 -53 -58 -7 -6 -19 -17
-27 -24 -16 -14 -131 -16 -140 -2 -6 9 48 81 103 138 28 29 21 43 -8 17 -23
-21 -57 -42 -82 -51 -10 -3 -18 -10 -18 -15 0 -5 -9 -9 -20 -9 -11 0 -20 -3
-20 -8 0 -4 -15 -13 -32 -21 -18 -7 -46 -20 -62 -27 -20 -10 -70 -14 -162 -14
-97 0 -134 -3 -137 -12 -3 -10 -9 -10 -23 -2 -14 8 -20 25 -22 64 -5 83 0 86
191 95 206 10 207 10 301 0 l79 -8 -8 194 c-4 107 -7 260 -6 341 2 81 0 160
-4 176 -7 32 -16 35 -140 48 -27 3 -59 9 -70 13 -45 19 -209 47 -340 57 -33 3
-69 9 -80 14 -57 25 -655 33 -875 12 -249 -24 -447 -51 -525 -72 -22 -6 -69
-15 -105 -20 -36 -6 -84 -12 -107 -16 l-43 -6 0 -97 c-1 -182 -10 -566 -16
-605 l-5 -39 73 8 c90 11 120 11 331 0 92 -4 167 -12 167 -17 0 -4 6 -8 14 -8
10 0 17 -15 21 -43 11 -70 4 -92 -29 -95 -16 -2 -33 1 -39 7 -7 7 -69 11 -169
11 -99 0 -158 4 -158 10 0 6 -4 10 -10 10 -17 0 -90 34 -90 42 0 5 -9 8 -20 8
-11 0 -20 4 -20 9 0 5 -8 12 -17 15 -25 9 -60 30 -81 49 -10 10 -22 17 -27 17
-5 0 -17 7 -27 17 -32 29 -20 -6 15 -40 17 -17 45 -50 62 -72 16 -22 40 -51
54 -64 13 -14 20 -26 15 -28 -5 -1 -34 -6 -64 -12 l-55 -9 -65 67 c-64 65
-121 134 -129 154 -2 5 -16 23 -32 40 -16 16 -31 38 -34 48 -4 11 -11 19 -16
19 -5 0 -9 7 -9 15 0 8 -4 15 -9 15 -5 0 -14 14 -21 30 -7 17 -16 30 -21 30
-5 0 -9 6 -9 13 0 23 -36 57 -59 57 -11 0 -21 -4 -21 -10 0 -5 -20 -10 -45
-10 -25 0 -45 -4 -45 -9 0 -5 -17 -11 -37 -14 -77 -10 -169 -28 -185 -38 -10
-5 -25 -9 -33 -9 -8 0 -23 -4 -33 -9 -9 -5 -36 -15 -58 -21 l-42 -13 102 -99
c55 -55 121 -117 146 -137 24 -20 58 -48 74 -63 16 -16 33 -28 37 -28 4 0 19
-11 33 -25 14 -14 29 -25 33 -25 4 0 23 -14 42 -30 28 -25 35 -39 39 -80 4
-49 4 -50 -22 -50 -14 0 -26 4 -26 8 0 4 -15 16 -32 27 -18 10 -38 24 -44 29
-6 6 -23 20 -38 31 -16 11 -34 26 -41 33 -8 6 -16 12 -20 12 -5 0 -18 10 -80
68 -13 12 -27 22 -29 22 -9 0 -266 257 -266 265 0 4 -8 15 -18 24 -10 9 -46
52 -80 96 -34 44 -69 89 -78 100 -9 11 -21 30 -27 43 -5 12 -14 22 -19 22 -4
0 -8 7 -8 15 0 8 -4 15 -10 15 -5 0 -10 4 -10 10 0 5 -16 34 -35 64 -19 30
-35 60 -35 66 0 5 -3 10 -7 10 -5 0 -21 28 -38 63 -16 34 -33 64 -37 65 -5 2
-8 12 -8 23 0 10 -4 19 -10 19 -5 0 -10 7 -10 16 0 9 -6 28 -14 42 -7 15 -19
39 -25 55 -6 15 -15 37 -21 50 -20 47 -60 174 -60 190 0 9 -4 17 -10 17 -5 0
-10 16 -10 35 0 19 -4 35 -10 35 -5 0 -10 13 -10 29 0 16 -4 41 -10 56 -25 66
-48 232 -60 440 -12 199 4 476 35 620 3 17 13 64 21 105 8 41 19 86 23 100 5
14 14 45 21 70 19 67 41 133 51 152 5 10 9 25 9 33 0 8 5 15 10 15 6 0 10 9
10 20 0 11 4 28 10 38 23 40 60 127 60 139 0 7 5 13 10 13 6 0 10 9 10 19 0
11 3 21 8 23 4 2 16 21 27 43 11 22 22 42 25 45 4 3 15 22 26 43 36 73 39 77
46 77 5 0 8 5 8 10 0 6 5 16 10 23 6 7 27 37 47 67 20 30 45 63 55 74 10 11
18 23 18 27 0 4 12 20 28 37 15 16 41 47 59 68 74 90 200 221 249 259 21 17
55 47 76 68 21 20 41 37 44 37 3 0 11 6 18 13 34 32 67 57 76 57 6 0 10 4 10
8 0 4 22 21 50 37 27 17 50 33 50 38 0 4 6 7 14 7 8 0 16 3 18 8 4 10 86 62
98 62 5 0 10 5 10 10 0 6 6 10 14 10 8 0 21 6 28 13 7 7 28 20 46 28 17 7 32
17 32 21 0 5 5 8 11 8 5 0 57 23 114 50 57 28 106 50 110 50 3 0 27 9 53 21
92 41 171 69 195 69 9 0 17 5 17 10 0 6 15 10 34 10 19 0 36 4 38 8 4 10 176
52 238 59 25 3 49 9 55 14 22 21 40 4 42 -41z m6279 -595 c56 -25 134 -95 134
-121 0 -8 5 -14 10 -14 6 0 10 -5 10 -11 0 -6 6 -25 14 -42 26 -58 45 -207 27
-207 -6 0 -11 -8 -11 -18 0 -45 -73 -141 -107 -142 -6 0 -13 -6 -15 -12 -3 -9
-9 -8 -21 4 -9 9 -17 19 -17 22 0 4 -11 28 -24 55 l-23 49 23 13 c13 7 24 18
24 25 0 7 5 14 11 16 13 4 15 148 2 157 -4 3 -14 18 -21 32 -24 47 -65 62
-164 61 -49 0 -94 -5 -101 -10 -7 -5 -23 -13 -37 -17 -76 -22 -130 -95 -130
-173 0 -53 23 -122 41 -122 5 0 9 -5 9 -10 0 -6 12 -23 26 -37 19 -19 28 -23
37 -14 6 6 21 11 34 11 22 0 23 3 17 43 -4 23 -11 44 -16 45 -4 2 -8 18 -8 36
0 36 19 50 83 61 32 5 38 3 46 -17 17 -47 31 -95 31 -111 0 -10 4 -25 9 -35
15 -30 38 -117 33 -130 -2 -6 -17 -12 -33 -12 -16 0 -29 -4 -29 -10 0 -5 -15
-10 -34 -10 -19 0 -38 -4 -41 -10 -3 -5 -16 -10 -29 -10 -12 0 -43 -7 -69 -16
l-46 -16 -59 57 c-33 31 -68 74 -78 96 -11 21 -22 39 -26 39 -5 0 -8 9 -8 20
0 11 -4 20 -8 20 -5 0 -14 33 -20 73 -11 75 1 207 19 207 5 0 9 7 9 15 0 8 5
15 10 15 6 0 10 7 10 16 0 18 58 74 78 74 6 0 12 4 12 8 0 13 95 62 119 62 11
0 21 5 21 10 0 6 43 10 110 10 95 0 117 -3 166 -25z m-11378 -54 c9 -5 30 -15
46 -22 34 -16 86 -63 86 -79 0 -5 5 -10 10 -10 6 0 10 -8 10 -18 0 -10 5 -23
11 -29 12 -12 8 -82 -10 -150 -34 -131 -33 -143 9 -143 16 0 31 -4 34 -9 3 -5
30 -12 61 -16 30 -3 57 -11 60 -16 4 -5 17 -9 31 -9 26 0 45 -27 26 -39 -5 -3
-13 -27 -17 -52 -10 -64 -18 -76 -47 -62 -13 6 -34 14 -48 17 -86 17 -127 28
-142 36 -10 6 -31 10 -48 10 -16 0 -30 4 -30 9 0 5 -17 11 -37 14 -53 7 -140
31 -149 40 -4 4 -22 7 -40 7 -18 0 -36 5 -39 10 -3 6 -15 10 -26 10 -11 0 -42
7 -70 16 -36 12 -49 21 -49 35 0 11 5 19 10 19 6 0 10 16 10 35 0 19 5 35 10
35 6 0 10 15 10 34 0 19 5 38 10 41 6 3 10 14 10 24 0 22 27 114 44 151 15 33
51 70 95 97 38 23 136 31 169 14z m5922 -3112 c197 -15 244 -20 258 -31 9 -8
12 -74 12 -269 l0 -259 -87 6 c-49 3 -104 10 -123 15 -46 12 -694 12 -740 0
-19 -5 -79 -12 -132 -15 l-98 -6 0 259 c0 196 3 262 12 267 50 31 637 52 898
33z m557 -69 c17 0 35 -4 38 -10 3 -5 23 -10 44 -10 20 0 49 -6 64 -12 l27
-13 0 -264 0 -263 -32 6 c-37 8 -114 22 -198 36 -30 5 -72 12 -92 16 l-38 6 0
262 c0 145 2 265 5 268 3 3 38 -1 78 -8 40 -8 86 -14 104 -14z m-1557 -240 l0
-260 -22 -4 c-13 -3 -39 -8 -58 -11 -48 -8 -123 -22 -193 -35 -32 -6 -62 -11
-65 -11 -31 -5 -32 2 -32 259 l0 258 33 12 c18 7 46 12 62 12 16 0 42 4 59 9
36 12 137 27 184 30 l32 1 0 -260z m895 -319 l30 -6 3 -138 3 -137 -241 0
-240 0 0 139 c0 102 3 141 13 144 18 8 396 6 432 -2z m-537 -143 l-3 -133 -62
-3 -63 -3 0 129 c0 71 3 132 7 135 3 4 33 7 65 7 l59 0 -3 -132z m815 113 c4
-4 6 -61 5 -127 l-3 -119 -70 0 -70 0 -3 134 -3 134 68 -7 c37 -4 72 -11 76
-15z m465 -683 l-3 -333 -940 0 -940 0 -3 333 -2 332 945 0 945 0 -2 -332z
m217 321 c33 -5 94 -14 135 -20 122 -16 193 -27 223 -34 l27 -7 0 -350 0 -350
-22 5 c-24 5 -153 33 -225 48 -24 5 -62 13 -85 19 -24 5 -67 14 -95 19 -29 5
-57 13 -63 16 -6 4 -10 126 -10 336 l0 329 28 0 c15 0 54 -5 87 -11z m-2197
-314 c1 -170 0 -320 -3 -331 -3 -15 -15 -24 -37 -27 -18 -4 -49 -9 -68 -12
-19 -4 -44 -10 -55 -15 -11 -5 -38 -11 -60 -14 -22 -3 -71 -13 -110 -22 -107
-24 -154 -31 -160 -26 -8 8 -5 676 3 688 7 11 36 16 172 30 30 3 59 10 65 15
5 5 32 10 60 10 27 1 64 5 80 9 17 5 48 7 70 7 l40 -2 3 -310z m387 -446 c290
-46 372 -53 625 -53 224 0 317 6 505 34 174 26 234 30 380 26 153 -4 315 -23
331 -38 4 -5 23 -9 43 -10 20 -1 -76 -6 -214 -11 -332 -13 -1787 -13 -2040 0
-110 5 -181 10 -157 11 23 1 42 7 42 12 0 6 17 10 39 10 21 0 54 7 72 15 40
17 276 19 374 4z m2835 -184 l0 -25 -2165 0 -2165 0 0 25 0 25 2165 0 2165 0
0 -25z m254 -131 c12 -5 16 -21 16 -65 l0 -59 -2470 0 -2470 0 0 58 c0 32 3
62 7 65 8 9 4895 9 4917 1z m496 -264 l0 -40 -2950 0 -2950 0 -6 25 c-3 14 -4
32 0 40 5 13 340 15 2956 15 l2950 0 0 -40z m580 -155 l0 -25 -3510 0 -3510 0
0 25 0 25 3510 0 3510 0 0 -25z m370 -150 l0 -35 -3900 0 -3900 0 0 35 0 35
3900 0 3900 0 0 -35z m400 -170 l0 -45 -4295 0 -4295 0 0 45 0 45 4295 0 4295
0 0 -45z m-3430 -187 c-1 -71 -12 -78 -128 -78 -56 0 -104 -4 -107 -10 -3 -5
-28 -10 -56 -10 -27 0 -57 -4 -67 -9 -9 -5 -55 -14 -102 -20 -146 -19 -165
-23 -175 -32 -5 -5 -23 -9 -40 -9 -17 0 -36 -5 -43 -12 -16 -16 -234 -17 -240
0 -2 7 -22 12 -48 12 -24 0 -44 5 -44 10 0 6 -17 10 -38 10 -21 0 -42 4 -48
10 -5 5 -49 13 -97 16 -48 4 -87 11 -87 15 0 5 -24 9 -54 9 -30 0 -58 5 -61
10 -3 6 -30 10 -60 10 -30 0 -64 4 -78 9 -13 5 -29 6 -35 2 -6 -3 -31 -5 -56
-3 -40 4 -46 7 -55 34 -6 17 -11 42 -11 54 l0 24 865 0 865 0 0 -42z m-1700
-136 c58 -6 157 -18 220 -27 63 -10 135 -19 160 -22 25 -2 54 -8 65 -13 11 -5
38 -11 60 -14 22 -3 74 -13 115 -22 41 -8 91 -18 110 -21 61 -9 60 -7 60 -224
0 -110 -2 -199 -5 -199 -3 0 -22 7 -42 15 -19 8 -46 15 -59 15 -12 0 -25 4
-28 9 -3 5 -18 11 -33 14 -16 3 -61 14 -100 26 -40 12 -84 21 -98 21 -14 0
-25 5 -25 10 0 6 -20 10 -44 10 -25 0 -48 5 -51 10 -3 6 -21 10 -38 10 -18 0
-49 5 -69 10 -82 23 -237 34 -493 33 -148 0 -290 -3 -315 -7 -123 -18 -237
-39 -258 -47 -13 -5 -36 -9 -52 -9 -17 0 -30 -4 -30 -10 0 -5 -10 -10 -22 -10
-23 0 -108 -25 -140 -41 -10 -5 -27 -9 -38 -9 -11 0 -20 -4 -20 -10 0 -5 -11
-10 -24 -10 -14 0 -27 -4 -30 -9 -3 -5 -17 -12 -31 -15 -14 -4 -54 -19 -88
-35 -34 -15 -83 -36 -109 -47 -27 -10 -48 -22 -48 -26 0 -5 -9 -8 -20 -8 -11
0 -20 -4 -20 -10 0 -5 -8 -10 -18 -10 -10 0 -27 -7 -38 -15 -10 -8 -26 -15
-36 -15 -9 0 -18 -4 -20 -8 -3 -9 -113 -62 -128 -62 -6 0 -10 -4 -10 -10 0 -5
-7 -10 -15 -10 -8 0 -23 -4 -33 -9 -29 -16 -85 -38 -127 -51 -22 -7 -50 -16
-63 -21 -13 -5 -36 -9 -52 -9 l-30 0 0 169 0 168 48 17 c26 10 56 21 67 26 11
4 45 18 75 30 30 12 83 35 116 51 34 16 67 29 73 29 6 0 11 5 11 10 0 6 9 10
20 10 11 0 20 5 20 10 0 6 6 10 12 10 16 0 122 53 126 63 2 4 10 7 18 7 8 0
22 4 32 10 28 16 211 100 218 100 3 0 22 7 42 16 21 9 46 20 57 25 11 4 45 16
75 24 30 9 65 21 78 26 13 5 34 9 47 9 14 0 25 4 25 9 0 5 17 11 38 14 20 3
75 13 122 21 47 9 129 20 183 25 54 5 101 12 105 16 9 9 370 -1 502 -13z
m2349 -18 c46 -8 99 -14 117 -14 18 0 36 -4 39 -10 3 -5 24 -10 46 -10 21 0
39 -4 39 -10 0 -5 12 -10 28 -10 15 0 59 -11 97 -25 39 -13 78 -25 88 -25 9 0
17 -4 17 -10 0 -5 11 -10 24 -10 14 0 27 -4 30 -8 3 -5 32 -17 65 -28 34 -10
61 -22 61 -26 0 -5 9 -8 20 -8 11 0 20 -4 20 -10 0 -5 5 -10 10 -10 9 0 335
-154 382 -180 10 -6 25 -10 33 -10 8 0 15 -3 15 -8 0 -4 15 -13 33 -21 17 -7
45 -20 61 -27 16 -8 37 -14 48 -14 10 0 18 -4 18 -10 0 -5 8 -10 18 -10 17 0
58 -16 102 -39 12 -7 15 -37 15 -172 l0 -164 -50 3 c-27 2 -54 8 -59 13 -6 5
-20 9 -32 9 -13 0 -25 4 -28 9 -3 5 -18 12 -32 15 -15 4 -69 27 -121 52 -51
24 -98 44 -103 44 -6 0 -10 5 -10 10 0 6 -9 10 -20 10 -11 0 -20 5 -20 10 0 6
-5 10 -10 10 -9 0 -196 85 -242 111 -10 5 -25 9 -33 9 -8 0 -15 5 -15 10 0 6
-8 10 -18 10 -10 0 -22 4 -27 8 -6 5 -38 17 -72 28 -35 10 -63 22 -63 26 0 5
-8 8 -17 8 -10 0 -52 12 -93 25 -41 14 -85 25 -97 25 -13 0 -23 4 -23 9 0 5
-17 11 -37 14 -21 3 -74 12 -118 21 -253 51 -612 53 -920 6 -44 -7 -90 -16
-103 -21 -13 -5 -38 -9 -57 -9 -19 0 -37 -4 -40 -10 -3 -5 -17 -10 -31 -10
-13 0 -57 -9 -97 -21 -116 -33 -130 -37 -167 -47 -19 -5 -48 -15 -63 -21 -16
-6 -39 -11 -53 -11 l-24 0 0 200 0 200 24 0 c14 0 27 4 30 9 3 4 25 11 48 14
24 4 77 14 118 22 243 52 479 84 685 94 193 10 457 3 564 -15z m-2314 -423
c44 -6 121 -17 170 -26 50 -9 109 -19 133 -22 23 -3 42 -9 42 -13 0 -4 17 -10
38 -13 20 -3 64 -12 97 -22 33 -9 75 -19 93 -22 18 -3 35 -9 38 -14 3 -5 15
-9 28 -9 12 0 26 -4 31 -9 6 -4 31 -14 58 -21 l47 -13 0 -93 c0 -99 -4 -107
-48 -86 -9 5 -26 13 -37 18 -11 6 -60 23 -110 38 -49 16 -99 32 -110 36 -48
19 -129 40 -151 40 -13 0 -24 5 -24 10 0 6 -20 10 -45 10 -25 0 -45 4 -45 9 0
5 -17 11 -37 14 -21 2 -74 9 -118 16 -212 31 -248 33 -385 28 -125 -5 -191
-13 -378 -44 -18 -3 -35 -9 -38 -14 -3 -5 -18 -9 -33 -9 -15 0 -31 -3 -34 -6
-10 -10 -109 -43 -129 -44 -10 0 -18 -3 -18 -8 0 -4 -18 -13 -40 -19 -51 -17
-154 -65 -158 -75 -2 -4 -9 -8 -15 -8 -15 0 -121 -53 -125 -62 -2 -5 -12 -8
-22 -8 -10 0 -20 -3 -22 -7 -1 -5 -52 -33 -113 -63 -60 -30 -111 -58 -113 -62
-2 -5 -9 -8 -15 -8 -6 0 -29 -9 -51 -19 -36 -17 -60 -27 -141 -62 -40 -16
-116 -39 -133 -39 -10 0 -22 -4 -27 -9 -6 -5 -32 -12 -60 -16 -84 -11 -285
-17 -285 -8 0 15 111 197 128 211 9 6 35 12 58 12 24 0 46 5 49 10 3 6 15 10
27 10 25 0 122 32 126 43 2 4 12 7 22 7 10 0 22 5 25 10 3 6 15 10 26 10 10 0
19 5 19 10 0 6 5 10 12 10 15 0 122 52 126 62 2 4 11 8 21 8 9 0 26 7 37 15
10 8 27 15 37 15 9 0 17 4 17 8 0 5 17 15 37 23 20 8 57 24 82 37 24 12 50 22
58 22 7 0 13 3 13 8 0 4 27 16 61 26 33 11 62 23 65 28 3 4 16 8 30 8 13 0 24
5 24 10 0 6 9 10 20 10 11 0 28 4 38 9 26 15 118 41 141 41 12 0 21 4 21 9 0
5 17 11 38 14 20 3 73 13 117 22 44 9 112 19 152 23 39 4 75 11 79 15 11 11
483 1 579 -12z m2180 0 c55 -5 141 -17 190 -26 50 -9 107 -18 128 -21 20 -4
37 -10 37 -15 0 -5 14 -9 30 -9 17 0 38 -4 48 -9 28 -13 118 -41 136 -41 9 0
16 -4 16 -10 0 -5 11 -10 24 -10 14 0 27 -4 30 -8 3 -5 32 -17 65 -28 34 -10
61 -22 61 -26 0 -5 9 -8 20 -8 11 0 20 -4 20 -10 0 -5 7 -10 15 -10 8 0 23 -4
33 -9 61 -33 230 -111 240 -111 7 0 12 -4 12 -10 0 -5 9 -10 20 -10 11 0 20
-4 20 -10 0 -5 4 -10 9 -10 5 0 44 -16 85 -35 42 -19 79 -35 82 -35 3 0 20 -6
37 -13 54 -23 102 -37 130 -37 14 0 29 -4 32 -10 3 -5 19 -10 36 -10 19 0 29
-5 29 -15 0 -8 3 -15 8 -15 4 0 20 -25 37 -55 16 -30 33 -55 37 -55 4 0 8 -9
8 -20 0 -11 5 -20 10 -20 6 0 10 -10 10 -21 0 -21 -2 -22 -137 -15 -76 4 -142
12 -147 17 -6 5 -21 9 -35 9 -15 0 -57 11 -96 25 -38 13 -78 25 -87 25 -10 0
-18 5 -18 10 0 6 -11 10 -25 10 -14 0 -25 5 -25 10 0 6 -5 10 -11 10 -12 0
-261 120 -269 130 -3 3 -32 19 -65 35 -33 17 -61 33 -63 38 -2 4 -12 7 -23 7
-10 0 -19 4 -19 8 0 4 -22 16 -50 27 -27 11 -50 23 -50 27 0 4 -9 8 -20 8 -11
0 -20 5 -20 10 0 6 -7 10 -16 10 -9 0 -28 6 -42 14 -26 13 -66 31 -107 46 -80
31 -109 40 -130 40 -14 0 -25 5 -25 10 0 6 -15 10 -34 10 -19 0 -37 4 -40 9
-3 5 -23 11 -43 14 -21 2 -67 10 -103 17 -84 17 -468 17 -570 0 -41 -7 -96
-14 -122 -17 -27 -3 -48 -9 -48 -14 0 -5 -20 -9 -45 -9 -25 0 -45 -4 -45 -10
0 -5 -9 -10 -21 -10 -29 0 -153 -33 -157 -42 -2 -5 -15 -8 -28 -8 -13 0 -32
-4 -42 -9 -28 -14 -85 -33 -114 -38 -16 -3 -28 -9 -28 -14 0 -5 -11 -9 -24 -9
-14 0 -28 -4 -31 -10 -3 -5 -17 -10 -31 -10 -24 0 -24 1 -24 89 l0 89 40 16
c22 9 49 16 60 16 10 0 22 5 25 10 3 6 17 10 31 10 13 0 24 5 24 10 0 6 14 10
30 10 17 0 38 4 48 10 19 10 97 29 155 37 20 3 40 9 43 14 3 5 21 9 40 9 19 0
42 4 52 10 21 11 162 30 299 39 56 3 105 10 109 14 10 10 239 2 379 -12z"/>
<path d="M9619 12493 c-7 -16 -15 -37 -19 -48 -4 -11 -12 -32 -18 -46 -9 -23
-8 -28 14 -38 14 -6 31 -11 39 -11 8 0 15 -4 15 -10 0 -5 13 -10 29 -10 17 0
33 -4 36 -10 3 -5 28 -10 54 -10 38 0 52 5 69 25 24 28 29 80 9 98 -23 21 -56
37 -77 37 -11 0 -20 5 -20 10 0 6 -8 10 -19 10 -10 0 -35 7 -54 15 -47 19 -46
20 -58 -12z"/>
<path d="M11125 11650 c3 -5 8 -10 11 -10 2 0 4 5 4 10 0 6 -5 10 -11 10 -5 0
-7 -4 -4 -10z"/>
<path d="M11620 11282 c0 -4 -40 -30 -90 -57 -49 -28 -90 -54 -90 -59 0 -9 39
-46 49 -46 3 0 21 -14 39 -31 18 -17 34 -30 35 -28 2 2 11 29 21 59 19 58 32
93 47 122 12 24 11 48 -1 48 -5 0 -10 -3 -10 -8z"/>
<path d="M12516 10191 c-3 -5 -23 -11 -43 -14 -61 -9 -129 -24 -115 -26 6 0
12 -10 12 -21 0 -11 4 -20 9 -20 5 0 12 -8 15 -17 3 -10 17 -31 31 -47 l25
-29 20 23 c11 13 20 26 20 30 0 3 8 15 18 26 25 28 72 92 72 98 0 10 -58 7
-64 -3z"/>
<path d="M2052 9533 c-48 -41 -64 -79 -64 -151 0 -55 3 -68 28 -98 29 -36 99
-79 165 -102 46 -16 143 -16 171 1 54 30 98 101 98 156 0 51 -56 151 -85 151
-3 0 -13 7 -24 16 -35 30 -95 47 -176 51 -75 3 -82 2 -113 -24z"/>
<path d="M6760 9513 c-14 -3 -29 -9 -34 -14 -6 -5 -22 -9 -37 -9 -15 0 -31 -4
-34 -10 -3 -5 -17 -10 -30 -10 -13 0 -26 -4 -29 -9 -4 -5 -24 -12 -46 -16 -22
-4 -40 -11 -40 -16 0 -5 -11 -9 -25 -9 -14 0 -25 -4 -25 -10 0 -5 -8 -10 -18
-10 -17 0 -60 -17 -104 -41 -10 -5 -23 -9 -29 -9 -6 0 -17 -7 -25 -15 -14 -13
-13 -15 5 -15 11 0 23 -4 26 -10 3 -5 17 -10 30 -10 13 0 25 -4 27 -9 2 -5 23
-12 48 -16 43 -6 48 -5 90 34 25 23 49 41 54 41 5 0 16 8 25 18 18 19 46 38
77 51 11 5 27 15 35 23 8 7 43 28 79 45 54 28 60 33 35 32 -16 -1 -41 -4 -55
-6z"/>
<path d="M8260 9502 c0 -4 16 -16 35 -26 19 -11 35 -23 35 -28 0 -4 7 -8 15
-8 8 0 15 -4 15 -9 0 -5 8 -12 18 -15 10 -4 35 -22 56 -41 21 -19 41 -35 45
-35 3 0 20 -14 38 -30 41 -38 68 -38 168 0 11 5 28 11 38 14 23 7 22 26 -3 26
-11 0 -20 5 -20 10 0 6 -8 10 -17 10 -10 0 -31 7 -47 15 -15 8 -35 15 -42 15
-8 0 -14 5 -14 10 0 6 -10 10 -23 10 -13 0 -27 3 -30 6 -10 10 -109 43 -129
44 -10 0 -18 5 -18 10 0 6 -16 10 -35 10 -19 0 -35 5 -35 10 0 6 -11 10 -25
10 -14 0 -25 -3 -25 -8z"/>
<path d="M6120 9253 c0 -5 -20 -16 -45 -26 -25 -11 -45 -23 -45 -28 0 -5 -4
-9 -10 -9 -10 0 -121 -68 -130 -80 -3 -4 -20 -15 -37 -25 -18 -11 -33 -23 -33
-27 0 -4 -6 -8 -12 -8 -7 0 -30 -16 -50 -35 -20 -19 -40 -35 -43 -35 -4 0 -12
-6 -19 -12 -8 -7 -39 -35 -71 -63 -66 -57 -163 -152 -218 -215 -40 -44 -38
-59 6 -60 9 0 17 -4 17 -10 0 -5 10 -10 23 -10 12 0 40 -7 62 -15 22 -8 55
-14 73 -15 17 0 32 -4 32 -10 0 -5 20 -10 44 -10 24 0 46 -4 48 -9 2 -4 45
-11 96 -15 80 -7 92 -5 92 8 0 9 5 16 10 16 6 0 10 7 10 15 0 8 3 15 8 15 4 0
16 20 27 45 11 25 23 45 27 45 5 0 8 6 8 13 0 7 8 22 19 33 10 11 21 29 25 40
3 10 19 35 36 54 16 19 30 41 30 48 0 6 4 12 8 12 4 0 16 15 27 33 10 17 27
39 37 48 10 9 18 20 18 24 0 4 15 22 33 40 17 17 44 47 58 66 15 19 36 44 48
56 28 29 27 43 -3 43 -14 0 -28 5 -31 10 -3 6 -14 10 -23 10 -9 0 -30 7 -46
15 -15 8 -35 15 -42 15 -8 0 -14 5 -14 10 0 6 -11 10 -25 10 -14 0 -25 -3 -25
-7z"/>
<path d="M8840 9250 c0 -5 -8 -10 -19 -10 -10 0 -32 -7 -47 -15 -16 -8 -39
-15 -51 -15 -13 0 -23 -4 -23 -9 0 -5 -11 -11 -26 -13 l-25 -3 35 -38 c20 -20
36 -39 36 -42 0 -3 10 -16 23 -29 35 -36 67 -76 67 -82 0 -4 8 -14 18 -23 10
-9 27 -31 37 -48 11 -18 23 -33 27 -33 4 0 8 -7 8 -15 0 -8 4 -15 8 -15 5 0
17 -16 28 -35 10 -19 22 -35 26 -35 5 0 8 -9 8 -19 0 -11 4 -21 9 -23 13 -5
61 -86 61 -103 0 -8 4 -15 9 -15 4 0 19 -20 32 -45 22 -41 27 -45 61 -45 21 0
38 5 38 10 0 6 24 10 54 10 30 0 58 5 61 10 3 6 21 10 38 10 18 0 54 7 81 15
27 8 62 15 78 15 15 0 28 5 28 10 0 6 11 10 25 10 14 0 33 4 43 9 9 5 25 12
35 15 9 3 17 9 17 13 0 15 -116 140 -160 174 -19 14 -61 52 -92 83 -32 31 -61
56 -65 56 -5 0 -24 14 -43 31 -19 17 -80 61 -135 97 -55 37 -102 69 -105 72
-3 3 -14 10 -25 16 -11 6 -42 23 -68 37 -47 27 -107 36 -107 17z"/>
<path d="M8445 9134 c-27 -7 -69 -14 -92 -14 -24 0 -43 -4 -43 -10 0 -5 -22
-10 -50 -10 -27 0 -50 -4 -50 -10 0 -5 -26 -11 -57 -11 -32 -1 -46 -4 -30 -6
15 -2 27 -9 27 -14 0 -5 11 -9 24 -9 14 0 27 -4 30 -9 4 -5 29 -12 56 -16 28
-4 50 -10 50 -13 0 -10 51 -32 72 -32 10 0 18 -3 18 -8 0 -4 12 -12 28 -19 15
-6 46 -20 70 -30 23 -10 42 -21 42 -25 0 -5 9 -8 20 -8 11 0 20 -4 20 -9 0 -5
11 -12 25 -15 14 -4 25 -11 25 -16 0 -6 9 -10 19 -10 10 0 21 -7 25 -15 3 -8
16 -20 28 -25 33 -14 60 -32 79 -52 9 -10 22 -18 30 -18 7 0 24 -12 36 -27 16
-19 23 -22 23 -10 0 8 -6 22 -12 29 -7 7 -20 27 -28 43 -8 17 -21 36 -27 43
-7 7 -13 18 -13 23 0 6 -10 20 -22 33 -13 12 -34 39 -48 59 -14 20 -28 37 -32
37 -5 0 -8 5 -8 10 0 6 -9 21 -20 33 -88 97 -139 147 -151 146 -8 0 -36 -7
-64 -15z"/>
<path d="M6420 9072 c-36 -37 -79 -85 -95 -107 -17 -21 -38 -47 -47 -57 -10
-10 -18 -22 -18 -28 0 -5 -11 -20 -25 -34 -14 -14 -25 -30 -25 -36 0 -5 -4
-10 -9 -10 -5 0 -13 -10 -17 -22 -4 -13 -15 -30 -25 -39 -11 -9 -19 -22 -19
-29 0 -9 5 -8 18 3 10 10 23 17 29 17 5 0 18 9 28 20 10 11 24 20 32 20 7 0
13 4 13 9 0 5 14 14 30 20 17 5 33 17 36 26 3 8 15 15 25 15 10 0 19 4 19 9 0
5 10 13 23 17 12 4 24 10 27 13 7 10 115 61 128 61 7 0 12 5 12 10 0 6 9 10
20 10 11 0 20 5 20 10 0 6 11 10 25 10 14 0 25 5 25 10 0 6 9 10 20 10 11 0
20 4 20 9 0 5 22 12 50 16 27 4 52 11 56 16 3 5 16 9 30 9 15 0 24 6 24 15 0
12 -13 15 -59 15 -33 0 -63 5 -66 10 -3 6 -26 10 -51 10 -24 0 -44 4 -44 9 0
4 -24 11 -52 14 -29 4 -62 9 -73 11 -15 4 -37 -12 -85 -62z"/>
<path d="M9660 8554 c-14 -7 -33 -14 -42 -14 -9 0 -20 -4 -23 -10 -3 -5 -17
-10 -30 -10 -13 0 -26 -4 -29 -9 -3 -5 -20 -11 -38 -14 -18 -3 -71 -14 -118
-26 -47 -11 -102 -21 -122 -21 -21 0 -38 -4 -38 -10 0 -5 -14 -10 -30 -10 -27
0 -29 -2 -21 -19 6 -10 22 -29 35 -42 14 -13 26 -30 26 -37 0 -7 14 -25 30
-39 17 -13 30 -31 30 -39 0 -8 4 -14 9 -14 5 0 13 -10 17 -22 4 -13 15 -30 25
-39 11 -9 19 -23 19 -32 0 -8 6 -17 14 -20 14 -6 39 -44 52 -79 3 -10 10 -18
15 -18 5 0 9 -9 9 -20 0 -11 5 -20 10 -20 6 0 10 -4 10 -10 0 -17 34 -90 42
-90 5 0 8 -9 8 -20 0 -25 42 -37 84 -22 17 6 64 14 104 18 39 3 72 11 72 15 0
5 15 9 34 9 19 0 37 4 40 9 3 5 25 12 48 15 47 7 113 28 124 39 4 4 14 7 21 7
27 0 56 43 36 52 -12 5 -63 106 -63 123 0 8 -3 15 -8 15 -4 0 -13 15 -21 33
-8 17 -17 34 -20 37 -14 11 -41 60 -41 74 0 8 -3 16 -7 18 -13 5 -63 76 -63
87 0 6 -4 11 -10 11 -5 0 -10 7 -10 15 0 8 -4 15 -10 15 -5 0 -10 5 -10 10 0
6 -11 23 -25 38 -14 15 -25 31 -25 36 0 16 -43 46 -64 45 -12 -1 -32 -7 -46
-15z"/>
<path d="M5268 8530 c-10 -11 -18 -25 -18 -30 0 -6 -3 -10 -7 -10 -5 0 -26
-28 -48 -63 -22 -34 -43 -63 -47 -65 -5 -2 -8 -10 -8 -18 0 -8 -3 -14 -7 -14
-5 0 -21 -25 -37 -55 -16 -30 -32 -55 -37 -55 -5 0 -9 -6 -9 -14 0 -17 -32
-80 -42 -84 -5 -2 -8 -12 -8 -23 0 -10 -4 -19 -10 -19 -5 0 -10 -6 -10 -14 0
-8 -8 -28 -17 -46 -17 -30 -17 -32 1 -45 11 -8 30 -15 43 -15 13 0 23 -4 23
-10 0 -5 10 -10 23 -10 12 0 44 -7 71 -15 27 -8 62 -15 78 -15 15 0 28 -4 28
-10 0 -5 20 -10 44 -10 24 0 46 -4 48 -9 2 -4 38 -11 81 -15 66 -6 77 -5 77 9
0 8 5 15 10 15 6 0 10 4 10 10 0 17 34 90 42 90 5 0 8 9 8 20 0 11 4 20 9 20
5 0 12 8 15 18 9 24 30 59 49 80 10 10 17 24 17 30 0 7 4 12 9 12 5 0 13 10
17 23 4 12 15 29 25 38 11 9 19 21 19 26 0 5 11 20 25 33 14 13 25 28 25 34 0
6 17 27 38 46 l37 35 -27 3 c-16 2 -28 8 -28 13 0 5 -20 9 -45 9 -25 0 -45 5
-45 10 0 6 -12 10 -27 10 -34 0 -161 28 -185 41 -10 5 -25 9 -33 9 -8 0 -25 5
-38 12 -44 23 -55 27 -88 33 -27 5 -38 2 -51 -15z"/>
<path d="M4877 7807 c-10 -34 -23 -70 -28 -79 -5 -10 -9 -27 -9 -37 0 -11 -4
-23 -10 -26 -5 -3 -10 -19 -10 -34 0 -15 -3 -31 -7 -35 -10 -9 -48 -215 -60
-318 -5 -45 -4 -47 24 -53 15 -3 36 -10 45 -16 10 -5 31 -9 47 -9 17 0 32 -4
36 -9 3 -5 41 -13 85 -17 44 -3 83 -11 86 -15 3 -5 27 -9 54 -9 27 0 52 -4 55
-10 3 -5 26 -10 51 -10 32 0 44 4 44 15 0 8 5 15 10 15 6 0 10 30 10 69 0 39
5 73 10 76 6 3 10 24 10 45 0 21 4 41 9 44 5 3 12 40 16 81 4 41 11 75 16 75
5 0 9 11 9 24 0 14 5 28 10 31 6 3 10 17 10 30 0 13 4 25 9 27 4 2 11 20 15
41 6 33 5 37 -13 37 -11 0 -23 5 -26 10 -3 6 -22 10 -41 10 -19 0 -34 4 -34 9
0 5 -21 11 -47 14 -60 6 -143 25 -165 37 -10 6 -27 10 -37 10 -11 0 -23 5 -26
10 -3 6 -19 10 -36 10 -16 0 -29 5 -29 10 0 6 -15 10 -32 10 -32 0 -34 -3 -51
-63z"/>
<path d="M10090 7860 c0 -5 -11 -10 -25 -10 -14 0 -25 -4 -25 -9 0 -5 -12 -11
-27 -14 -61 -12 -132 -32 -139 -40 -4 -4 -22 -7 -40 -7 -18 0 -36 -4 -39 -10
-3 -5 -21 -10 -40 -10 -19 0 -37 -4 -40 -10 -3 -5 -21 -10 -40 -10 -19 0 -37
-4 -40 -10 -3 -5 -21 -10 -38 -11 -18 0 -26 -3 -19 -6 6 -2 12 -16 12 -29 0
-13 5 -24 10 -24 6 0 10 -13 10 -30 0 -16 4 -30 9 -30 5 0 13 -25 16 -55 4
-30 11 -58 16 -61 5 -3 9 -23 9 -44 0 -21 5 -42 10 -45 6 -3 10 -24 10 -45 0
-21 5 -42 10 -45 6 -3 10 -37 10 -76 0 -39 4 -69 10 -69 6 0 10 -9 10 -19 0
-18 6 -19 73 -15 39 3 81 9 92 14 11 5 38 11 60 14 22 3 78 12 125 21 47 9
100 19 118 22 18 3 35 9 38 14 3 5 17 9 31 9 l26 0 -8 92 c-4 51 -11 100 -16
110 -5 9 -9 35 -9 57 0 23 -4 41 -10 41 -5 0 -10 15 -10 34 0 19 -4 38 -10 41
-5 3 -10 16 -10 27 0 24 -27 124 -41 150 -5 10 -9 27 -9 38 0 11 -4 20 -10 20
-5 0 -10 9 -10 20 0 15 -7 20 -25 20 -14 0 -25 -4 -25 -10z"/>
<path d="M4734 6957 c7 -218 15 -318 26 -342 5 -11 11 -42 14 -70 3 -27 12
-79 20 -115 8 -36 18 -78 21 -95 4 -16 10 -39 15 -50 18 -46 60 -184 60 -199
0 -9 6 -16 13 -17 27 -3 63 3 71 12 6 5 20 9 33 9 13 0 23 4 23 9 0 5 15 11
33 14 17 3 64 13 102 22 39 9 89 19 113 22 23 3 42 9 42 14 0 5 17 9 38 9 21
0 43 5 48 10 12 12 6 70 -7 70 -5 0 -9 14 -9 30 0 17 -4 30 -10 30 -5 0 -10
11 -10 25 0 14 -4 25 -9 25 -5 0 -12 34 -16 75 -4 41 -11 78 -16 81 -5 3 -9
23 -9 44 0 21 -4 42 -10 45 -5 3 -10 37 -10 76 0 39 -4 69 -10 69 -6 0 -10 45
-10 116 0 134 -5 144 -74 144 -25 0 -47 4 -50 9 -3 5 -32 11 -63 14 -32 3 -89
13 -128 22 -38 9 -86 19 -105 22 -19 3 -37 9 -40 13 -3 4 -24 10 -48 13 l-43
5 5 -161z"/>
<path d="M10263 7112 c-18 -2 -33 -7 -33 -13 0 -5 -15 -9 -33 -9 -19 0 -37 -3
-41 -7 -9 -10 -174 -43 -213 -43 -18 0 -33 -4 -33 -10 0 -5 -25 -10 -55 -10
-30 0 -55 -4 -55 -10 0 -5 -18 -10 -40 -10 l-40 0 0 -120 c0 -73 -4 -120 -10
-120 -6 0 -10 -30 -10 -70 0 -40 -4 -70 -10 -70 -5 0 -10 -20 -10 -45 0 -25
-4 -45 -10 -45 -5 0 -10 -20 -10 -45 0 -25 -4 -45 -9 -45 -4 0 -11 -27 -15
-60 -4 -33 -11 -60 -16 -60 -6 0 -10 -13 -10 -30 0 -16 -4 -30 -10 -30 -14 0
-12 -29 3 -44 12 -12 35 -18 130 -32 20 -4 37 -10 37 -15 0 -5 16 -9 35 -9 19
0 35 -4 35 -10 0 -5 11 -10 24 -10 27 0 188 -50 196 -61 5 -7 42 -12 68 -10 6
1 12 12 12 26 0 14 5 25 10 25 6 0 10 14 10 30 0 17 4 30 8 30 8 0 27 68 39
138 3 17 9 32 14 32 5 0 9 17 9 38 0 21 4 42 9 48 5 5 11 27 14 49 3 22 10 72
15 110 23 156 34 296 30 405 l-3 115 -32 -3z"/>
<path d="M9540 6086 c0 -9 -4 -16 -8 -16 -5 0 -14 -16 -22 -35 -8 -19 -17 -35
-21 -35 -4 0 -10 -16 -13 -35 -4 -19 -10 -35 -15 -35 -4 0 -13 -16 -21 -35 -8
-19 -17 -35 -21 -35 -4 0 -11 -10 -15 -22 -4 -13 -15 -30 -25 -39 -11 -9 -19
-23 -19 -32 0 -8 -7 -17 -15 -21 -8 -3 -20 -16 -25 -28 -15 -35 -33 -60 -62
-89 -16 -15 -28 -32 -28 -38 0 -5 -10 -21 -23 -33 -31 -31 -24 -48 19 -48 19
0 34 -4 34 -9 0 -5 17 -11 38 -14 75 -11 152 -31 152 -39 0 -4 13 -8 29 -8 17
0 33 -4 36 -10 3 -5 17 -10 31 -10 13 0 24 -4 24 -8 0 -4 21 -14 48 -22 26 -7
57 -17 70 -21 17 -6 28 -2 40 13 9 11 27 32 40 46 13 15 30 39 40 55 9 15 20
27 24 27 4 0 8 6 8 14 0 8 3 16 8 18 10 4 62 86 62 98 0 5 3 10 8 10 7 0 10 4
46 77 11 21 22 40 26 43 10 9 80 155 80 167 0 6 6 14 13 16 6 3 2 6 -10 6 -13
1 -23 6 -23 11 0 6 -11 10 -25 10 -14 0 -25 5 -25 10 0 6 -11 10 -24 10 -13 0
-43 7 -66 15 -23 8 -53 15 -66 15 -13 0 -24 5 -24 10 0 6 -16 10 -35 10 -19 0
-35 4 -35 8 0 5 -37 13 -82 19 -46 6 -93 14 -105 18 -18 6 -23 3 -23 -9z"/>
<path d="M5350 6060 c0 -5 -18 -10 -40 -10 -22 0 -48 -4 -58 -9 -19 -10 -115
-31 -174 -38 -21 -3 -38 -9 -38 -14 0 -5 -13 -9 -30 -9 -16 0 -30 -4 -30 -10
0 -5 -6 -10 -14 -10 -9 0 -12 -8 -8 -25 2 -14 8 -25 13 -25 5 0 9 -7 9 -16 0
-9 8 -28 18 -42 10 -15 27 -45 37 -67 11 -22 23 -41 28 -43 4 -2 7 -12 7 -23
0 -10 5 -19 10 -19 6 0 10 -7 10 -15 0 -8 4 -15 8 -15 5 0 17 -18 27 -40 10
-22 22 -40 27 -40 4 0 8 -7 8 -15 0 -8 3 -15 8 -15 4 0 16 -16 26 -35 11 -19
23 -35 28 -35 4 0 8 -6 8 -14 0 -8 4 -16 8 -18 4 -1 21 -21 37 -43 48 -64 46
-63 76 -48 15 7 50 19 78 26 28 6 51 15 51 19 0 5 16 8 35 8 19 0 35 4 35 9 0
5 12 11 28 14 15 3 47 11 72 17 25 6 75 16 113 23 40 7 67 16 67 24 0 7 -16
28 -35 47 -19 20 -35 39 -35 44 0 5 -11 19 -25 32 -14 13 -25 28 -25 35 0 6
-9 17 -20 25 -11 8 -20 23 -20 33 0 9 -7 20 -15 23 -8 4 -15 13 -15 21 0 9 -8
23 -17 32 -21 19 -41 49 -49 74 -4 9 -10 17 -15 17 -5 0 -9 9 -9 20 0 11 -3
20 -8 20 -4 0 -12 12 -19 28 -6 15 -20 46 -30 70 l-18 42 -62 0 c-35 0 -63 -4
-63 -10z"/>
<path d="M1810 8811 c0 -5 -8 -11 -19 -14 -21 -5 -51 -59 -51 -93 0 -13 -4
-26 -10 -29 -5 -3 -10 -19 -10 -36 0 -22 5 -29 19 -29 11 0 22 -4 25 -9 3 -5
20 -11 38 -14 18 -4 48 -9 66 -13 30 -6 32 -5 32 23 0 16 5 34 11 40 6 6 11
38 12 73 2 58 0 63 -28 86 -29 23 -85 33 -85 15z"/>
</g>
</svg>
