<?xml version="1.0" standalone="no"?>
<!DOCTYPE svg PUBLIC "-//W3C//DTD SVG 20010904//EN"
 "http://www.w3.org/TR/2001/REC-SVG-20010904/DTD/svg10.dtd">
<svg version="1.0" xmlns="http://www.w3.org/2000/svg"
 width="3065.000000pt" height="1750.000000pt" viewBox="0 0 3065.000000 1750.000000"
 preserveAspectRatio="xMidYMid meet">

<g transform="translate(0.000000,1750.000000) scale(0.100000,-0.100000)"
fill="#000000" stroke="none">
<path d="M0 8750 l0 -8750 15325 0 15325 0 0 8750 0 8750 -15325 0 -15325 0 0
-8750z m15980 5015 c33 -17 44 -44 35 -83 -3 -15 -79 -148 -168 -297 -150
-250 -165 -271 -206 -292 -44 -23 -46 -23 -460 -23 -242 0 -431 4 -451 10 -20
5 -50 24 -66 42 -39 42 -324 589 -324 622 0 13 6 27 13 29 6 3 369 6 805 6
684 1 797 -1 822 -14z m-2747 -27 c14 -13 145 -224 292 -470 l267 -447 -4
-108 -5 -108 -616 -1055 c-440 -752 -628 -1064 -654 -1088 -20 -18 -68 -48
-106 -67 l-70 -35 -519 0 -519 0 -24 25 c-16 15 -25 35 -25 55 0 24 236 440
927 1638 536 929 942 1621 963 1644 42 44 59 47 93 16z m-4704 -1343 c16 -8
34 -28 41 -45 11 -27 11 -36 -2 -64 -9 -17 -244 -430 -523 -916 -323 -565
-518 -895 -538 -913 -18 -15 -67 -46 -111 -67 l-78 -40 -717 0 c-477 0 -729
-4 -754 -11 -22 -6 -54 -25 -72 -42 -18 -18 -193 -306 -390 -642 -197 -335
-370 -623 -386 -640 -55 -57 -53 -59 -367 460 l-283 470 3 105 4 105 623 1060
624 1060 89 68 90 67 1359 0 c1170 0 1364 -2 1388 -15z m3330 0 c16 -8 31 -22
35 -30 11 -28 7 -94 -8 -129 -8 -19 -240 -421 -516 -895 l-502 -861 -66 -43
c-37 -24 -80 -49 -95 -55 -21 -9 -362 -12 -1400 -12 -1516 0 -1417 -4 -1417
61 0 22 150 290 541 962 298 513 549 940 558 951 17 20 62 45 101 57 14 4 636
8 1383 8 1173 1 1362 -1 1386 -14z m3361 2 c39 -20 54 -61 43 -117 -14 -69
-997 -1759 -1055 -1812 -22 -21 -67 -51 -101 -68 l-60 -30 -532 0 c-516 0
-532 1 -550 20 -9 10 -20 39 -22 64 -5 44 3 59 518 943 334 573 536 910 558
932 20 18 59 44 86 57 l50 24 520 0 c399 0 526 -3 545 -13z m3360 -2 c34 -17
45 -50 37 -102 -9 -53 -1018 -1789 -1064 -1831 -21 -18 -67 -47 -102 -65 l-66
-32 -515 3 c-283 2 -523 6 -533 8 -22 7 -47 55 -47 92 0 21 135 264 450 810
311 541 451 792 456 821 19 117 -74 153 -214 82 -114 -58 -109 -49 -611 -911
-507 -869 -485 -838 -598 -880 -52 -20 -72 -20 -586 -18 l-531 3 -23 34 c-13
19 -23 47 -23 62 0 31 1011 1771 1059 1822 33 36 78 64 150 93 l56 24 1338 0
c1177 0 1342 -2 1367 -15z m3372 -16 c29 -28 30 -34 25 -85 -5 -49 -29 -94
-253 -467 -145 -240 -264 -428 -286 -449 -80 -78 -17 -72 -843 -78 -740 -5
-740 -5 -785 -27 -80 -40 -131 -105 -280 -360 l-141 -243 11 -40 c20 -74 107
-100 212 -64 77 26 119 72 229 252 132 214 139 223 201 258 l53 29 532 3 c470
2 536 1 563 -13 36 -19 54 -57 46 -103 -5 -34 -290 -507 -334 -554 -14 -15
-56 -40 -93 -54 l-68 -27 -1350 5 c-1312 5 -1352 5 -1372 24 -31 27 -39 57
-28 97 14 50 992 1754 1037 1807 56 65 128 101 221 110 42 4 660 8 1374 9
l1299 1 30 -31z m4992 10 c21 -17 26 -29 26 -67 0 -28 -9 -66 -23 -94 -59
-123 -1865 -3212 -1886 -3226 -22 -15 -26 -14 -58 4 -28 16 -78 94 -305 484
-260 446 -272 467 -276 525 -3 42 2 77 15 115 10 30 257 471 549 980 292 509
536 935 543 947 6 12 11 42 11 66 0 124 -165 135 -297 20 -22 -18 -190 -302
-489 -823 -490 -856 -496 -865 -609 -921 l-60 -29 -545 2 -545 3 -13 29 c-30
61 -11 98 457 909 421 730 443 771 438 808 -7 55 -31 86 -74 98 -72 20 -186
-25 -261 -102 -26 -28 -189 -304 -477 -812 -474 -835 -483 -847 -599 -905
l-59 -30 -539 0 c-535 0 -538 0 -559 21 -16 16 -20 30 -16 58 7 52 1037 1824
1086 1868 20 18 63 46 96 63 l60 29 2191 1 2191 0 27 -21z m3338 -9 c27 -27
30 -36 25 -71 -4 -28 -109 -220 -353 -647 -191 -334 -415 -726 -498 -872 -172
-300 -221 -363 -316 -398 -54 -19 -87 -20 -1400 -27 -1218 -7 -1349 -6 -1377
8 -42 22 -57 64 -45 121 13 63 471 824 533 887 89 91 19 83 849 89 728 5 735
5 782 27 80 37 125 94 276 353 127 218 142 249 138 280 -3 22 -17 45 -36 63
-26 23 -39 27 -88 27 -71 0 -164 -41 -207 -92 -17 -20 -79 -115 -138 -212
-120 -195 -151 -227 -241 -246 -34 -7 -224 -10 -564 -8 l-512 3 -24 25 c-24
25 -29 42 -27 91 1 27 295 516 334 556 12 12 49 34 82 47 l60 25 1358 1 1359
0 30 -30z m-12922 -3561 c-88 -75 -519 -411 -755 -589 -1555 -1168 -3124
-2072 -4670 -2690 -2571 -1028 -5025 -1228 -7015 -570 -514 170 -1025 414
-1452 692 -76 50 -135 94 -132 99 3 5 -2 6 -10 3 -26 -10 -29 21 -5 60 18 31
19 39 8 54 -12 15 -12 16 2 5 9 -7 18 -10 22 -7 3 3 22 -5 41 -18 20 -14 34
-27 31 -30 -3 -2 1 -5 7 -5 7 0 65 -34 128 -75 171 -113 379 -229 604 -338
1533 -744 3317 -730 5251 42 1486 593 3126 1688 4718 3148 93 85 190 173 215
195 l46 40 1021 5 c561 3 1236 7 1500 7 l480 2 -35 -30z m-14107 -3240 c23
-17 41 -34 40 -38 -1 -4 3 -8 10 -8 7 0 90 -52 185 -116 1666 -1121 3915
-1616 6417 -1412 1130 92 2347 336 3518 703 l158 50 1267 -605 c697 -333 1291
-616 1321 -630 29 -13 51 -26 49 -29 -8 -7 -531 -109 -866 -168 -4038 -716
-7653 -479 -10262 672 -718 317 -1404 730 -1918 1156 l-83 69 78 44 c43 25 90
54 106 64 15 11 33 17 40 13 6 -4 9 -4 5 1 -4 4 0 14 10 21 16 11 15 14 -11
34 -15 12 -33 27 -40 34 -6 6 -29 24 -49 40 -21 16 -35 33 -31 40 3 6 3 8 -2
4 -4 -4 -16 -3 -26 2 -17 9 -16 12 8 50 15 22 28 40 30 40 2 0 22 -14 46 -31z
m1018 -1841 c1543 -904 3543 -1458 6133 -1698 125 -12 225 -26 235 -33 46 -33
1431 -1211 1427 -1214 -5 -5 -576 62 -876 103 -2844 390 -5080 1135 -6758
2251 -303 202 -751 540 -766 578 -3 8 -1 17 5 20 5 4 6 12 3 18 -4 7 -4 9 1 5
11 -10 153 175 158 206 5 27 28 18 156 -64 76 -48 202 -126 282 -172z"/>
<path d="M6949 12206 c-44 -16 -84 -44 -125 -88 -17 -18 -216 -356 -444 -752
l-412 -719 11 -37 c15 -51 51 -73 118 -72 65 0 143 35 190 84 46 48 853 1430
860 1472 8 52 -4 84 -40 106 -37 23 -104 26 -158 6z"/>
<path d="M10254 12200 c-33 -16 -73 -44 -90 -62 -50 -54 -854 -1462 -854
-1496 0 -40 33 -79 77 -91 66 -19 173 19 234 82 39 40 837 1397 854 1453 39
125 -78 186 -221 114z"/>
<path d="M20370 12211 c-100 -31 -137 -74 -294 -349 -132 -230 -138 -244 -133
-284 7 -52 57 -103 112 -114 49 -9 117 12 160 50 43 39 334 532 342 581 8 51
-4 83 -40 105 -33 21 -99 25 -147 11z"/>
<path d="M28220 11291 c-52 -16 -127 -61 -165 -98 -52 -50 -315 -507 -315
-546 0 -60 46 -97 122 -97 52 0 151 45 190 86 34 36 311 508 327 556 14 41 2
81 -28 97 -22 12 -94 13 -131 2z"/>
</g>
</svg>
